<svg xmlns="http://www.w3.org/2000/svg" xmlns:xlink="http://www.w3.org/1999/xlink" height="620.5820097097303" width="617.990260137038">
  <g transform="translate(308.9951300685184, 310.29100485486504) rotate(118.00004219257173) translate(-308.9951300685184, -310.29100485486504)" opacity="1">
    <path fill="rgb(180,192,212)" fill-opacity="1" opacity="1" fill-rule="evenodd" d="M539.517134936249 289.33216993117617C538.7622251257264 302.1982160558219 538.2589519187115 315.0871555009741 537.2066533949529 327.9074149846069C536.2001069809229 340.3155946991229 534.8504197439281 352.7008810931324 533.2490959034259 365.06327416663544C530.5039693197077 386.2167023146296 525.5398654141509 406.84358409097445 518.4025362964836 426.96681281617657C511.5397198371883 446.2887753236517 500.19319662448663 462.33699299869915 484.52309904242895 475.5006522899292C473.7484772013353 484.54351388999163 462.1731934399904 492.41881614422323 450.18614069108787 499.76757202680557C432.4800742261059 510.61900594688046 413.9962218957372 519.7534408289688 394.2313104929666 526.2322505323046C380.25404097086846 530.8109146336021 365.9107545709411 533.7870462994454 351.3158315675064 535.5498319784449C338.3679845143025 537.106577772886 325.3515092965057 537.6789107855482 312.3350340787088 537.1981510549119C258.4848009281047 535.2064321708476 210.65097020681614 517.555682060346 169.4740714510441 482.41443508288836C148.2908446466858 464.3287118827635 129.5324796579452 444.06812323452243 113.4734891431941 421.2892693305678C96.04193533658392 396.56448318356166 85.15293322116865 369.2298584988161 80.76073068721963 339.285395276331C79.36529134049627 329.8533472276583 78.47312520078785 320.3755125379726 78.83914207861692 310.8289978867675C79.5711758342751 291.46124873827944 83.13984039310864 272.64293928194706 89.15624282242423 254.19092295371843C97.02560569574956 230.06136313988102 109.2871711030239 208.40428194074423 124.86576446562431 188.50998642060694C132.43773862571348 178.84900516686935 140.46723388308908 169.64589032326154 149.91504454205233 161.7476947485235C153.0948161681925 159.09206956977098 156.0687033005538 156.18461786544714 159.22559887182967 153.50609936618815C161.51320435826145 151.56016712313675 163.77793378982892 149.54555491856587 166.3171758797682 147.98880912412474C175.97087103251033 142.05943911294457 185.12129297823742 135.4203761660633 194.18021070450726 128.66684661664962C216.43861208748848 112.0234026084335 241.2820076701376 100.8514622012678 267.8182313127463 93.11351987007515C280.81183047567885 89.33612198650478 294.01131413239017 86.42867028218092 307.4395583377447 84.59720464166195C317.39064220372296 83.24649873177921 327.3646021245655 82.9030989241819 337.407190210001 83.42964529583111C365.2015968701471 84.89481780824629 392.35547399409234 89.97713496068641 418.91457369156547 98.24162366352827C436.2088711689896 103.62155398255274 452.7253827810272 110.76426998057671 467.80070293661254 120.95179760596346C478.5066966131134 128.18608688601338 488.36627625963433 136.42768226834875 497.4251939859041 145.65369043246307C511.5168437823238 160.00780239003046 521.1019107704731 176.97175288533742 526.7980484316882 196.20214211078658C530.8013580329439 209.75498785062695 533.615112781255 223.55966011603866 535.8112140482294 237.50169230448932C538.5563406319476 254.67168268435466 539.4713828265203 271.9561396667524 539.517134936249 289.33216993117617Z"/>
  </g>
</svg>