<svg width="1022" height="128" viewBox="0 0 1022 128" fill="none" xmlns="http://www.w3.org/2000/svg">
<g id="Gaurav Ashra" filter="url(#filter0_d)">
<path d="M59.285 119.16C65.36 119.16 71.4125 118.17 77.4425 116.19C83.4725 114.21 88.9625 111.24 93.9125 107.28C98.9075 103.32 102.89 98.37 105.86 92.43C108.83 86.49 110.315 79.5825 110.315 71.7075V61.785H58.745V70.0875H99.785V73.935C99.785 79.38 98.6375 84.3075 96.3425 88.7175C94.0925 93.1275 91.0325 96.9075 87.1625 100.057C83.3375 103.207 79.0175 105.615 74.2025 107.28C69.4325 108.945 64.5275 109.777 59.4875 109.777C53.2775 109.777 47.495 108.562 42.14 106.132C36.83 103.657 32.1725 100.215 28.1675 95.805C24.1625 91.35 21.035 86.175 18.785 80.28C16.58 74.34 15.4775 67.9275 15.4775 61.0425C15.4775 54.6525 16.4675 48.5775 18.4475 42.8175C20.4725 37.0125 23.375 31.86 27.155 27.36C30.98 22.815 35.6375 19.2375 41.1275 16.6275C46.6625 14.0175 52.94 12.7125 59.96 12.7125C67.295 12.7125 74.1575 14.175 80.5475 17.1C86.9375 19.98 92.2475 23.8275 96.4775 28.6425L101.81 20.8125C96.95 15.6375 90.9425 11.475 83.7875 8.32499C76.6325 5.17499 68.735 3.6 60.095 3.6C51.32 3.6 43.49 5.1975 36.605 8.39249C29.72 11.5425 23.8925 15.8625 19.1225 21.3525C14.3525 26.7975 10.7075 32.985 8.1875 39.915C5.7125 46.8 4.475 53.955 4.475 61.38C4.475 69.435 5.87 76.9725 8.66 83.9925C11.45 90.9675 15.32 97.0875 20.27 102.352C25.265 107.617 31.07 111.735 37.685 114.705C44.345 117.675 51.545 119.16 59.285 119.16ZM164.759 119.16C170.879 119.16 176.437 117.675 181.432 114.705C186.427 111.735 190.409 107.64 193.379 102.42V117H203.234V47.88H193.379V62.2575C190.769 57.0825 186.899 53.0325 181.769 50.1075C176.684 47.1825 171.014 45.72 164.759 45.72C158.189 45.72 152.294 47.3175 147.074 50.5125C141.899 53.6625 137.804 58.005 134.789 63.54C131.819 69.075 130.334 75.3525 130.334 82.3725C130.334 89.4825 131.842 95.805 134.857 101.34C137.917 106.875 142.034 111.24 147.209 114.435C152.384 117.585 158.234 119.16 164.759 119.16ZM167.189 110.587C162.059 110.587 157.469 109.372 153.419 106.942C149.414 104.512 146.264 101.182 143.969 96.9525C141.674 92.7225 140.527 87.885 140.527 82.44C140.527 76.95 141.674 72.09 143.969 67.86C146.264 63.63 149.414 60.3225 153.419 57.9375C157.424 55.5075 162.014 54.2925 167.189 54.2925C172.364 54.2925 176.954 55.5075 180.959 57.9375C184.964 60.3225 188.092 63.63 190.342 67.86C192.637 72.09 193.784 76.95 193.784 82.44C193.784 87.885 192.637 92.745 190.342 97.02C188.047 101.25 184.897 104.58 180.892 107.01C176.932 109.395 172.364 110.587 167.189 110.587ZM260.238 119.16C270.723 119.16 278.215 116.82 282.715 112.14C287.215 107.415 289.465 99.495 289.465 88.38V47.88H279.61V86.625C279.61 95.355 278.125 101.587 275.155 105.322C272.23 109.012 267.258 110.857 260.238 110.857C253.263 110.857 248.29 109.012 245.32 105.322C242.35 101.587 240.865 95.355 240.865 86.625V47.88H231.01V88.38C231.01 99.495 233.26 107.415 237.76 112.14C242.26 116.82 249.753 119.16 260.238 119.16ZM317.327 117H327.182V71.37C327.182 68.445 328.059 65.7 329.814 63.135C331.614 60.525 333.932 58.41 336.767 56.79C339.647 55.17 342.662 54.36 345.812 54.36C349.277 54.36 352.472 55.0575 355.397 56.4525L359.447 48.15C356.072 46.53 352.202 45.72 347.837 45.72C338.522 45.72 331.637 49.8375 327.182 58.0725V47.88H317.327V117ZM406.151 119.16C412.271 119.16 417.828 117.675 422.823 114.705C427.818 111.735 431.801 107.64 434.771 102.42V117H444.626V47.88H434.771V62.2575C432.161 57.0825 428.291 53.0325 423.161 50.1075C418.076 47.1825 412.406 45.72 406.151 45.72C399.581 45.72 393.686 47.3175 388.466 50.5125C383.291 53.6625 379.196 58.005 376.181 63.54C373.211 69.075 371.726 75.3525 371.726 82.3725C371.726 89.4825 373.233 95.805 376.248 101.34C379.308 106.875 383.426 111.24 388.601 114.435C393.776 117.585 399.626 119.16 406.151 119.16ZM408.581 110.587C403.451 110.587 398.861 109.372 394.811 106.942C390.806 104.512 387.656 101.182 385.361 96.9525C383.066 92.7225 381.918 87.885 381.918 82.44C381.918 76.95 383.066 72.09 385.361 67.86C387.656 63.63 390.806 60.3225 394.811 57.9375C398.816 55.5075 403.406 54.2925 408.581 54.2925C413.756 54.2925 418.346 55.5075 422.351 57.9375C426.356 60.3225 429.483 63.63 431.733 67.86C434.028 72.09 435.176 76.95 435.176 82.44C435.176 87.885 434.028 92.745 431.733 97.02C429.438 101.25 426.288 104.58 422.283 107.01C418.323 109.395 413.756 110.587 408.581 110.587ZM496.512 117H502.992L536.607 47.88H525.065L499.752 102.96L474.507 47.88H462.965L496.512 117ZM617.546 117H628.548L642.251 81.495H690.108L703.676 117H714.746L670.938 5.62499H661.421L617.546 117ZM645.693 72.45L666.146 19.125L686.598 72.45H645.693ZM754.52 119.16C762.035 119.16 768.155 117.135 772.88 113.085C777.65 109.035 780.035 103.545 780.035 96.615C780.035 92.565 779.203 89.37 777.538 87.03C775.873 84.645 773.533 82.6875 770.518 81.1575C767.503 79.5825 763.993 78.0525 759.988 76.5675C757.198 75.4875 754.588 74.4075 752.158 73.3275C749.773 72.2475 747.838 70.965 746.353 69.48C744.868 67.95 744.125 66.015 744.125 63.675C744.125 60.48 745.295 57.8925 747.635 55.9125C750.02 53.9325 753.103 52.9425 756.883 52.9425C763.048 52.9425 768.2 55.665 772.34 61.11L776.863 55.3725C774.163 52.3125 771.103 49.95 767.683 48.285C764.308 46.62 760.685 45.7875 756.815 45.7875C752.585 45.7875 748.805 46.5975 745.475 48.2175C742.145 49.7925 739.535 51.975 737.645 54.765C735.755 57.51 734.81 60.66 734.81 64.215C734.81 67.725 735.688 70.6275 737.443 72.9225C739.243 75.1725 741.515 77.04 744.26 78.525C747.005 80.01 749.84 81.3375 752.765 82.5075C756.5 83.9475 759.65 85.23 762.215 86.355C764.78 87.48 766.715 88.83 768.02 90.405C769.37 91.98 770.045 94.1625 770.045 96.9525C770.045 101.452 768.515 105.007 765.455 107.617C762.395 110.227 758.728 111.532 754.453 111.532C750.223 111.532 746.375 110.317 742.91 107.887C739.445 105.412 736.633 101.97 734.473 97.56L729.208 103.23C731.638 108.315 735.035 112.252 739.4 115.042C743.765 117.788 748.805 119.16 754.52 119.16ZM803.406 117H813.261V71.9775C813.261 68.7375 814.049 65.745 815.624 63C817.244 60.21 819.561 57.96 822.576 56.25C825.591 54.54 829.214 53.685 833.444 53.685C839.474 53.685 844.154 55.5975 847.484 59.4225C850.859 63.2025 852.546 68.6475 852.546 75.7575V117H862.401V73.8675C862.401 64.9575 860.084 58.05 855.449 53.145C850.859 48.195 844.559 45.72 836.549 45.72C830.834 45.72 825.974 46.845 821.969 49.095C818.009 51.345 815.106 54.09 813.261 57.33V0.832495H803.406V117ZM890.154 117H900.009V71.37C900.009 68.445 900.887 65.7 902.642 63.135C904.442 60.525 906.759 58.41 909.594 56.79C912.474 55.17 915.489 54.36 918.639 54.36C922.104 54.36 925.299 55.0575 928.224 56.4525L932.274 48.15C928.899 46.53 925.029 45.72 920.664 45.72C911.349 45.72 904.464 49.8375 900.009 58.0725V47.88H890.154V117ZM978.978 119.16C985.098 119.16 990.655 117.675 995.65 114.705C1000.65 111.735 1004.63 107.64 1007.6 102.42V117H1017.45V47.88H1007.6V62.2575C1004.99 57.0825 1001.12 53.0325 995.988 50.1075C990.903 47.1825 985.233 45.72 978.978 45.72C972.408 45.72 966.513 47.3175 961.293 50.5125C956.118 53.6625 952.023 58.005 949.008 63.54C946.038 69.075 944.553 75.3525 944.553 82.3725C944.553 89.4825 946.06 95.805 949.075 101.34C952.135 106.875 956.253 111.24 961.428 114.435C966.603 117.585 972.453 119.16 978.978 119.16ZM981.408 110.587C976.278 110.587 971.688 109.372 967.638 106.942C963.633 104.512 960.483 101.182 958.188 96.9525C955.893 92.7225 954.745 87.885 954.745 82.44C954.745 76.95 955.893 72.09 958.188 67.86C960.483 63.63 963.633 60.3225 967.638 57.9375C971.643 55.5075 976.233 54.2925 981.408 54.2925C986.583 54.2925 991.173 55.5075 995.178 57.9375C999.183 60.3225 1002.31 63.63 1004.56 67.86C1006.86 72.09 1008 76.95 1008 82.44C1008 87.885 1006.86 92.745 1004.56 97.02C1002.27 101.25 999.115 104.58 995.11 107.01C991.15 109.395 986.583 110.587 981.408 110.587Z" fill="black"/>
<path d="M77.4425 116.19L74.6348 107.639L74.6348 107.639L77.4425 116.19ZM93.9125 107.28L88.3213 100.227L88.3057 100.24L88.2903 100.252L93.9125 107.28ZM105.86 92.43L97.8102 88.4051L97.8102 88.4051L105.86 92.43ZM110.315 61.785H119.315V52.785H110.315V61.785ZM58.745 61.785V52.785H49.745V61.785H58.745ZM58.745 70.0875H49.745V79.0875H58.745V70.0875ZM99.785 70.0875H108.785V61.0875H99.785V70.0875ZM96.3425 88.7175L88.3589 84.5628L88.3421 84.5949L88.3256 84.6273L96.3425 88.7175ZM87.1625 100.057L81.4811 93.0774L81.4611 93.0937L81.4411 93.1101L87.1625 100.057ZM74.2025 107.28L71.2612 98.7742L71.2489 98.7785L71.2365 98.7828L74.2025 107.28ZM42.14 106.132L38.3378 114.29L38.3793 114.309L38.421 114.328L42.14 106.132ZM28.1675 95.805L21.4745 101.822L21.4897 101.839L21.505 101.856L28.1675 95.805ZM18.785 80.28L10.3476 83.4121L10.3619 83.4507L10.3766 83.4893L18.785 80.28ZM18.4475 42.8175L9.9497 39.8531L9.94297 39.8724L9.93632 39.8918L18.4475 42.8175ZM27.155 27.36L20.269 21.5649L20.2637 21.5713L27.155 27.36ZM41.1275 16.6275L37.289 8.48713L37.2761 8.49319L37.2633 8.49929L41.1275 16.6275ZM80.5475 17.1L76.8016 25.2834L76.8255 25.2943L76.8494 25.3051L80.5475 17.1ZM96.4775 28.6425L89.7161 34.5825L97.3799 43.3062L103.916 33.7085L96.4775 28.6425ZM101.81 20.8125L109.249 25.8785L113.312 19.9128L108.371 14.6513L101.81 20.8125ZM83.7875 8.32499L87.4139 0.0879204L87.4139 0.0879192L83.7875 8.32499ZM36.605 8.39249L40.3494 16.5766L40.3714 16.5665L40.3934 16.5563L36.605 8.39249ZM19.1225 21.3525L25.8922 27.283L25.9043 27.2692L25.9163 27.2553L19.1225 21.3525ZM8.1875 39.915L-0.27064 36.8393L-0.276297 36.8549L-0.281897 36.8704L8.1875 39.915ZM8.66 83.9925L0.296336 87.3165L0.300013 87.3258L0.30371 87.335L8.66 83.9925ZM20.27 102.352L13.7129 108.517L13.7268 108.532L13.7408 108.547L20.27 102.352ZM37.685 114.705L33.9987 122.915L34.0091 122.92L34.0195 122.925L37.685 114.705ZM59.285 128.16C66.3559 128.16 73.3549 127.005 80.2502 124.741L74.6348 107.639C69.4701 109.335 64.3641 110.16 59.285 110.16V128.16ZM80.2502 124.741C87.3006 122.426 93.7441 118.94 99.5348 114.308L88.2903 100.252C84.181 103.54 79.6444 105.994 74.6348 107.639L80.2502 124.741ZM99.5037 114.333C105.573 109.521 110.377 103.521 113.91 96.4549L97.8102 88.4051C95.4033 93.2188 92.2419 97.1192 88.3213 100.227L99.5037 114.333ZM113.91 96.4549C117.611 89.0534 119.315 80.7218 119.315 71.7075H101.315C101.315 78.4432 100.049 83.9266 97.8102 88.4051L113.91 96.4549ZM119.315 71.7075V61.785H101.315V71.7075H119.315ZM110.315 52.785H58.745V70.785H110.315V52.785ZM49.745 61.785V70.0875H67.745V61.785H49.745ZM58.745 79.0875H99.785V61.0875H58.745V79.0875ZM90.785 70.0875V73.935H108.785V70.0875H90.785ZM90.785 73.935C90.785 78.074 89.9242 81.555 88.3589 84.5628L104.326 92.8722C107.351 87.06 108.785 80.686 108.785 73.935H90.785ZM88.3256 84.6273C86.6493 87.913 84.388 90.7114 81.4811 93.0774L92.844 107.038C97.677 103.104 101.536 98.342 104.359 92.8077L88.3256 84.6273ZM81.4411 93.1101C78.4661 95.5602 75.0932 97.4491 71.2612 98.7742L77.1438 115.786C82.9418 113.781 88.2089 110.855 92.8839 107.005L81.4411 93.1101ZM71.2365 98.7828C67.4176 100.116 63.5151 100.777 59.4875 100.777V118.777C65.5399 118.777 71.4474 117.774 77.1685 115.777L71.2365 98.7828ZM59.4875 100.777C54.487 100.777 49.9809 99.8073 45.859 97.9368L38.421 114.328C45.0091 117.318 52.068 118.777 59.4875 118.777V100.777ZM45.9422 97.9751C41.7347 96.014 38.0449 93.2943 34.83 89.7543L21.505 101.856C26.3001 107.136 31.9253 111.301 38.3378 114.29L45.9422 97.9751ZM34.8605 89.7881C31.6338 86.1988 29.0702 81.9881 27.1934 77.0707L10.3766 83.4893C12.9998 90.3619 16.6912 96.5012 21.4745 101.822L34.8605 89.7881ZM27.2224 77.1479C25.4205 72.2937 24.4775 66.9512 24.4775 61.0425H6.4775C6.4775 68.9038 7.73952 76.3863 10.3476 83.4121L27.2224 77.1479ZM24.4775 61.0425C24.4775 55.5987 25.318 50.5162 26.9587 45.7432L9.93632 39.8918C7.61703 46.6388 6.4775 53.7062 6.4775 61.0425H24.4775ZM26.9453 45.7818C28.6274 40.9598 31.0009 36.7743 34.0463 33.1487L20.2637 21.5713C15.7491 26.9457 12.3176 33.0652 9.9497 39.8531L26.9453 45.7818ZM34.041 33.1551C37.0175 29.6183 40.6363 26.8263 44.9917 24.7557L37.2633 8.49929C30.6387 11.6487 24.9425 16.0117 20.269 21.5649L34.041 33.1551ZM44.966 24.7679C49.1357 22.8017 54.0721 21.7125 59.96 21.7125V3.71249C51.8079 3.71249 44.1893 5.23332 37.289 8.48713L44.966 24.7679ZM59.96 21.7125C66.0601 21.7125 71.6386 22.9201 76.8016 25.2834L84.2934 8.9166C76.6764 5.42992 68.5299 3.71249 59.96 3.71249V21.7125ZM76.8494 25.3051C82.1791 27.7073 86.4105 30.8198 89.7161 34.5825L103.239 22.7025C98.0845 16.8352 91.6959 12.2527 84.2456 8.89487L76.8494 25.3051ZM103.916 33.7085L109.249 25.8785L94.3712 15.7464L89.0387 23.5764L103.916 33.7085ZM108.371 14.6513C102.602 8.50863 95.5639 3.67598 87.4139 0.0879204L80.1611 16.5621C86.3211 19.274 91.2983 22.7664 95.2495 26.9737L108.371 14.6513ZM87.4139 0.0879192C79.0011 -3.61583 69.8515 -5.4 60.095 -5.4V12.6C67.6185 12.6 74.2639 13.9658 80.1611 16.5621L87.4139 0.0879192ZM60.095 -5.4C50.2149 -5.4 41.0602 -3.5968 32.8166 0.228685L40.3934 16.5563C45.9198 13.9918 52.4251 12.6 60.095 12.6V-5.4ZM32.8606 0.208381C24.8572 3.8701 17.9755 8.95045 12.3287 15.4496L25.9163 27.2553C29.8095 22.7745 34.5828 19.2149 40.3494 16.5766L32.8606 0.208381ZM12.3528 15.422C6.83409 21.7216 2.62318 28.8813 -0.27064 36.8393L16.6456 42.9907C18.7918 37.0887 21.8709 31.8734 25.8922 27.283L12.3528 15.422ZM-0.281897 36.8704C-3.11326 44.7468 -4.525 52.9328 -4.525 61.38H13.475C13.475 54.9771 14.5383 48.8532 16.6569 42.9595L-0.281897 36.8704ZM-4.525 61.38C-4.525 70.497 -2.94135 79.1701 0.296336 87.3165L17.0237 80.6685C14.6813 74.7749 13.475 68.373 13.475 61.38H-4.525ZM0.30371 87.335C3.4949 95.313 7.96159 102.4 13.7129 108.517L26.8271 96.1877C22.6784 91.775 19.4051 86.622 17.0163 80.65L0.30371 87.335ZM13.7408 108.547C19.5423 114.662 26.3128 119.465 33.9987 122.915L41.3713 106.495C35.8272 104.005 30.9877 100.573 26.7992 96.1582L13.7408 108.547ZM34.0195 122.925C41.903 126.44 50.3609 128.16 59.285 128.16V110.16C52.7291 110.16 46.787 108.91 41.3506 106.485L34.0195 122.925ZM181.432 114.705L186.031 122.441L186.031 122.441L181.432 114.705ZM193.379 102.42H202.379V68.4026L185.557 97.9693L193.379 102.42ZM193.379 117H184.379V126H193.379V117ZM203.234 117V126H212.234V117H203.234ZM203.234 47.88H212.234V38.88H203.234V47.88ZM193.379 47.88V38.88H184.379V47.88H193.379ZM193.379 62.2575L185.343 66.3104L202.379 62.2575H193.379ZM181.769 50.1075L177.281 57.9089L177.296 57.9174L177.311 57.9259L181.769 50.1075ZM147.074 50.5125L151.754 58.2003L151.763 58.1945L151.772 58.1888L147.074 50.5125ZM134.789 63.54L126.886 59.2348L126.872 59.2597L126.859 59.2846L134.789 63.54ZM134.857 101.34L126.953 105.645L126.966 105.67L126.98 105.694L134.857 101.34ZM147.209 114.435L142.481 122.093L142.505 122.108L142.53 122.123L147.209 114.435ZM153.419 106.942L148.75 114.637L148.769 114.648L148.789 114.66L153.419 106.942ZM143.969 67.86L136.058 63.568L136.058 63.568L143.969 67.86ZM153.419 57.9375L158.024 65.6702L158.056 65.6512L158.088 65.632L153.419 57.9375ZM180.959 57.9375L176.29 65.632L176.322 65.6512L176.354 65.6702L180.959 57.9375ZM190.342 67.86L182.396 72.0865L182.413 72.1193L182.431 72.152L190.342 67.86ZM190.342 97.02L198.252 101.312L198.262 101.294L198.271 101.277L190.342 97.02ZM180.892 107.01L185.535 114.72L185.547 114.712L185.56 114.704L180.892 107.01ZM164.759 128.16C172.408 128.16 179.57 126.283 186.031 122.441L176.832 106.969C173.304 109.067 169.35 110.16 164.759 110.16V128.16ZM186.031 122.441C192.413 118.646 197.487 113.399 201.202 106.871L185.557 97.9693C183.331 101.881 180.44 104.824 176.832 106.969L186.031 122.441ZM184.379 102.42V117H202.379V102.42H184.379ZM193.379 126H203.234V108H193.379V126ZM212.234 117V47.88H194.234V117H212.234ZM203.234 38.88H193.379V56.88H203.234V38.88ZM184.379 47.88V62.2575H202.379V47.88H184.379ZM201.415 58.2046C197.992 51.4187 192.863 46.0728 186.227 42.2891L177.311 57.9259C180.935 59.9922 183.546 62.7463 185.343 66.3104L201.415 58.2046ZM186.257 42.3061C179.716 38.5436 172.481 36.72 164.759 36.72V54.72C169.547 54.72 173.652 55.8214 177.281 57.9089L186.257 42.3061ZM164.759 36.72C156.658 36.72 149.114 38.7117 142.376 42.8362L151.772 58.1888C155.474 55.9232 159.72 54.72 164.759 54.72V36.72ZM142.394 42.8247C135.81 46.8328 130.627 52.3667 126.886 59.2348L142.693 67.8452C144.981 63.6433 147.988 60.4922 151.754 58.2003L142.394 42.8247ZM126.859 59.2846C123.107 66.276 121.334 74.045 121.334 82.3725H139.334C139.334 76.66 140.531 71.874 142.719 67.7954L126.859 59.2846ZM121.334 82.3725C121.334 90.7912 123.13 98.6277 126.953 105.645L142.76 97.0348C140.553 92.9823 139.334 88.1738 139.334 82.3725H121.334ZM126.98 105.694C130.757 112.527 135.937 118.053 142.481 122.093L151.937 106.777C148.132 104.427 145.076 101.223 142.733 96.9855L126.98 105.694ZM142.53 122.123C149.223 126.197 156.715 128.16 164.759 128.16V110.16C159.753 110.16 155.545 108.973 151.889 106.747L142.53 122.123ZM167.189 101.587C163.545 101.587 160.581 100.744 158.049 99.2251L148.789 114.66C154.357 118.001 160.573 119.587 167.189 119.587V101.587ZM158.088 99.248C155.484 97.6684 153.436 95.5293 151.88 92.6605L136.058 101.244C139.092 106.836 143.344 111.357 148.75 114.637L158.088 99.248ZM151.88 92.6605C150.389 89.9132 149.527 86.5857 149.527 82.44H131.527C131.527 89.1843 132.959 95.5318 136.058 101.244L151.88 92.6605ZM149.527 82.44C149.527 78.2356 150.395 74.8887 151.88 72.152L136.058 63.568C132.953 69.2913 131.527 75.6644 131.527 82.44H149.527ZM151.88 72.152C153.429 69.2971 155.457 67.1989 158.024 65.6702L148.814 50.2048C143.371 53.4461 139.099 57.9629 136.058 63.568L151.88 72.152ZM158.088 65.632C160.541 64.1436 163.483 63.2925 167.189 63.2925V45.2925C160.545 45.2925 154.307 46.8714 148.75 50.243L158.088 65.632ZM167.189 63.2925C170.895 63.2925 173.837 64.1436 176.29 65.632L185.628 50.243C180.071 46.8714 173.833 45.2925 167.189 45.2925V63.2925ZM176.354 65.6702C178.905 67.1894 180.895 69.2661 182.396 72.0865L198.287 63.6335C195.288 57.9939 191.023 53.4556 185.564 50.2048L176.354 65.6702ZM182.431 72.152C183.916 74.8887 184.784 78.2356 184.784 82.44H202.784C202.784 75.6644 201.357 69.2913 198.252 63.568L182.431 72.152ZM184.784 82.44C184.784 86.5837 183.922 89.9502 182.412 92.7631L198.271 101.277C201.351 95.5398 202.784 89.1863 202.784 82.44H184.784ZM182.431 92.728C180.874 95.5968 178.827 97.7359 176.223 99.3155L185.56 114.704C190.967 111.424 195.219 106.903 198.252 101.312L182.431 92.728ZM176.248 99.3003C173.852 100.743 170.928 101.587 167.189 101.587V119.587C173.8 119.587 180.011 118.047 185.535 114.72L176.248 99.3003ZM282.715 112.14L289.203 118.378L289.218 118.362L289.233 118.347L282.715 112.14ZM289.465 47.88H298.465V38.88H289.465V47.88ZM279.61 47.88V38.88H270.61V47.88H279.61ZM275.155 105.322L268.111 99.721L268.102 99.7318L275.155 105.322ZM245.32 105.322L238.276 110.924L238.292 110.945L238.309 110.966L245.32 105.322ZM240.865 47.88H249.865V38.88H240.865V47.88ZM231.01 47.88V38.88H222.01V47.88H231.01ZM237.76 112.14L231.243 118.347L231.258 118.362L231.273 118.378L237.76 112.14ZM260.238 128.16C271.719 128.16 282.211 125.649 289.203 118.378L276.228 105.902C274.22 107.991 269.726 110.16 260.238 110.16V128.16ZM289.233 118.347C296.129 111.105 298.465 100.294 298.465 88.38H280.465C280.465 98.6956 278.301 103.725 276.198 105.933L289.233 118.347ZM298.465 88.38V47.88H280.465V88.38H298.465ZM289.465 38.88H279.61V56.88H289.465V38.88ZM270.61 47.88V86.625H288.61V47.88H270.61ZM270.61 86.625C270.61 94.8037 269.127 98.4432 268.111 99.721L282.2 110.924C287.124 104.732 288.61 95.9063 288.61 86.625H270.61ZM268.102 99.7318C267.592 100.375 265.898 101.857 260.238 101.857V119.857C268.618 119.857 276.868 117.65 282.208 110.913L268.102 99.7318ZM260.238 101.857C254.66 101.857 252.905 100.392 252.331 99.6794L238.309 110.966C243.675 117.633 251.866 119.857 260.238 119.857V101.857ZM252.365 99.721C251.349 98.4432 249.865 94.8037 249.865 86.625H231.865C231.865 95.9063 233.352 104.732 238.276 110.924L252.365 99.721ZM249.865 86.625V47.88H231.865V86.625H249.865ZM240.865 38.88H231.01V56.88H240.865V38.88ZM222.01 47.88V88.38H240.01V47.88H222.01ZM222.01 88.38C222.01 100.294 224.346 111.105 231.243 118.347L244.278 105.933C242.174 103.725 240.01 98.6956 240.01 88.38H222.01ZM231.273 118.378C238.265 125.649 248.756 128.16 260.238 128.16V110.16C250.749 110.16 246.256 107.991 244.248 105.902L231.273 118.378ZM317.327 117H308.327V126H317.327V117ZM327.182 117V126H336.182V117H327.182ZM329.814 63.135L322.406 58.0254L322.396 58.0391L322.387 58.0528L329.814 63.135ZM336.767 56.79L332.355 48.9458L332.328 48.9607L332.302 48.9758L336.767 56.79ZM355.397 56.4525L351.523 64.5759L359.575 68.4161L363.486 60.3983L355.397 56.4525ZM359.447 48.15L367.536 52.0958L371.507 43.9556L363.342 40.0363L359.447 48.15ZM327.182 58.0725H318.182L335.098 62.3549L327.182 58.0725ZM327.182 47.88H336.182V38.88H327.182V47.88ZM317.327 47.88V38.88H308.327V47.88H317.327ZM317.327 126H327.182V108H317.327V126ZM336.182 117V71.37H318.182V117H336.182ZM336.182 71.37C336.182 70.3748 336.444 69.3839 337.242 68.2172L322.387 58.0528C319.675 62.016 318.182 66.5152 318.182 71.37H336.182ZM337.223 68.2446C338.234 66.7791 339.533 65.5753 341.232 64.6042L332.302 48.9758C328.331 51.2447 324.995 54.2709 322.406 58.0254L337.223 68.2446ZM341.179 64.6342C342.781 63.7334 344.284 63.36 345.812 63.36V45.36C341.04 45.36 336.513 46.6066 332.355 48.9458L341.179 64.6342ZM345.812 63.36C348.031 63.36 349.89 63.7974 351.523 64.5759L359.271 48.3291C355.054 46.3176 350.523 45.36 345.812 45.36V63.36ZM363.486 60.3983L367.536 52.0958L351.358 44.2042L347.308 52.5067L363.486 60.3983ZM363.342 40.0363C358.565 37.7436 353.327 36.72 347.837 36.72V54.72C351.077 54.72 353.579 55.3164 355.552 56.2637L363.342 40.0363ZM347.837 36.72C341.819 36.72 336.118 38.0636 331.068 41.084C326.02 44.1029 322.133 48.4906 319.266 53.7901L335.098 62.3549C336.686 59.4194 338.469 57.6308 340.306 56.5322C342.141 55.4351 344.54 54.72 347.837 54.72V36.72ZM336.182 58.0725V47.88H318.182V58.0725H336.182ZM327.182 38.88H317.327V56.88H327.182V38.88ZM308.327 47.88V117H326.327V47.88H308.327ZM422.823 114.705L427.423 122.441L427.423 122.441L422.823 114.705ZM434.771 102.42H443.771V68.4026L426.948 97.9693L434.771 102.42ZM434.771 117H425.771V126H434.771V117ZM444.626 117V126H453.626V117H444.626ZM444.626 47.88H453.626V38.88H444.626V47.88ZM434.771 47.88V38.88H425.771V47.88H434.771ZM434.771 62.2575L426.735 66.3104L443.771 62.2575H434.771ZM423.161 50.1075L418.673 57.9089L418.688 57.9174L418.703 57.9259L423.161 50.1075ZM388.466 50.5125L393.145 58.2003L393.155 58.1945L393.164 58.1888L388.466 50.5125ZM376.181 63.54L368.277 59.2348L368.264 59.2597L368.25 59.2846L376.181 63.54ZM376.248 101.34L368.345 105.645L368.358 105.67L368.372 105.694L376.248 101.34ZM388.601 114.435L383.873 122.093L383.897 122.108L383.921 122.123L388.601 114.435ZM394.811 106.942L390.142 114.637L390.161 114.648L390.18 114.66L394.811 106.942ZM385.361 67.86L377.45 63.568L377.45 63.568L385.361 67.86ZM394.811 57.9375L399.416 65.6702L399.447 65.6512L399.479 65.632L394.811 57.9375ZM422.351 57.9375L417.682 65.632L417.714 65.6512L417.746 65.6702L422.351 57.9375ZM431.733 67.86L423.787 72.0865L423.805 72.1193L423.822 72.152L431.733 67.86ZM431.733 97.02L439.644 101.312L439.653 101.294L439.663 101.277L431.733 97.02ZM422.283 107.01L426.926 114.72L426.939 114.712L426.952 114.704L422.283 107.01ZM406.151 128.16C413.8 128.16 420.961 126.283 427.423 122.441L418.223 106.969C414.695 109.067 410.741 110.16 406.151 110.16V128.16ZM427.423 122.441C433.805 118.646 438.879 113.399 442.593 106.871L426.948 97.9693C424.723 101.881 421.832 104.824 418.223 106.969L427.423 122.441ZM425.771 102.42V117H443.771V102.42H425.771ZM434.771 126H444.626V108H434.771V126ZM453.626 117V47.88H435.626V117H453.626ZM444.626 38.88H434.771V56.88H444.626V38.88ZM425.771 47.88V62.2575H443.771V47.88H425.771ZM442.806 58.2046C439.384 51.4187 434.254 46.0728 427.618 42.2891L418.703 57.9259C422.327 59.9922 424.937 62.7463 426.735 66.3104L442.806 58.2046ZM427.648 42.3061C421.107 38.5436 413.872 36.72 406.151 36.72V54.72C410.939 54.72 415.044 55.8214 418.673 57.9089L427.648 42.3061ZM406.151 36.72C398.049 36.72 390.506 38.7117 383.767 42.8362L393.164 58.1888C396.865 55.9232 401.112 54.72 406.151 54.72V36.72ZM383.786 42.8247C377.201 46.8328 372.018 52.3667 368.277 59.2348L384.084 67.8452C386.373 63.6433 389.38 60.4922 393.145 58.2003L383.786 42.8247ZM368.25 59.2846C364.499 66.276 362.726 74.045 362.726 82.3725H380.726C380.726 76.66 381.923 71.874 384.111 67.7954L368.25 59.2846ZM362.726 82.3725C362.726 90.7912 364.522 98.6277 368.345 105.645L384.152 97.0348C381.944 92.9823 380.726 88.1738 380.726 82.3725H362.726ZM368.372 105.694C372.149 112.527 377.328 118.053 383.873 122.093L393.329 106.777C389.523 104.427 386.467 101.223 384.125 96.9855L368.372 105.694ZM383.921 122.123C390.615 126.197 398.107 128.16 406.151 128.16V110.16C401.144 110.16 396.936 108.973 393.28 106.747L383.921 122.123ZM408.581 101.587C404.936 101.587 401.973 100.744 399.441 99.2251L390.18 114.66C395.749 118.001 401.965 119.587 408.581 119.587V101.587ZM399.479 99.248C396.876 97.6684 394.828 95.5293 393.271 92.6605L377.45 101.244C380.483 106.836 384.736 111.357 390.142 114.637L399.479 99.248ZM393.271 92.6605C391.781 89.9132 390.918 86.5857 390.918 82.44H372.918C372.918 89.1843 374.351 95.5318 377.45 101.244L393.271 92.6605ZM390.918 82.44C390.918 78.2356 391.786 74.8887 393.271 72.152L377.45 63.568C374.345 69.2913 372.918 75.6644 372.918 82.44H390.918ZM393.271 72.152C394.82 69.2971 396.848 67.1989 399.416 65.6702L390.206 50.2048C384.763 53.4461 380.491 57.9629 377.45 63.568L393.271 72.152ZM399.479 65.632C401.932 64.1436 404.874 63.2925 408.581 63.2925V45.2925C401.937 45.2925 395.699 46.8714 390.142 50.243L399.479 65.632ZM408.581 63.2925C412.287 63.2925 415.229 64.1436 417.682 65.632L427.019 50.243C421.462 46.8714 415.224 45.2925 408.581 45.2925V63.2925ZM417.746 65.6702C420.297 67.1894 422.287 69.2661 423.787 72.0865L439.679 63.6335C436.679 57.9939 432.414 53.4556 426.956 50.2048L417.746 65.6702ZM423.822 72.152C425.307 74.8887 426.176 78.2356 426.176 82.44H444.176C444.176 75.6644 442.749 69.2913 439.644 63.568L423.822 72.152ZM426.176 82.44C426.176 86.5837 425.314 89.9502 423.804 92.7631L439.663 101.277C442.743 95.5398 444.176 89.1863 444.176 82.44H426.176ZM423.822 92.728C422.266 95.5968 420.218 97.7359 417.615 99.3155L426.952 114.704C432.358 111.424 436.61 106.903 439.644 101.312L423.822 92.728ZM417.64 99.3003C415.244 100.743 412.32 101.587 408.581 101.587V119.587C415.191 119.587 421.402 118.047 426.926 114.72L417.64 99.3003ZM496.512 117L488.415 120.93L490.876 126H496.512V117ZM502.992 117V126H508.623L511.086 120.936L502.992 117ZM536.607 47.88L544.701 51.8162L550.992 38.88H536.607V47.88ZM525.065 47.88V38.88H519.296L516.887 44.1218L525.065 47.88ZM499.752 102.96L491.57 106.71L499.741 124.537L507.93 106.718L499.752 102.96ZM474.507 47.88L482.689 44.1301L480.282 38.88H474.507V47.88ZM462.965 47.88V38.88H448.592L454.868 51.8098L462.965 47.88ZM496.512 126H502.992V108H496.512V126ZM511.086 120.936L544.701 51.8162L528.513 43.9438L494.898 113.064L511.086 120.936ZM536.607 38.88H525.065V56.88H536.607V38.88ZM516.887 44.1218L491.574 99.2018L507.93 106.718L533.242 51.6382L516.887 44.1218ZM507.934 99.2101L482.689 44.1301L466.325 51.6299L491.57 106.71L507.934 99.2101ZM474.507 38.88H462.965V56.88H474.507V38.88ZM454.868 51.8098L488.415 120.93L504.609 113.07L471.061 43.9502L454.868 51.8098ZM617.546 117L609.172 113.701L604.327 126H617.546V117ZM628.548 117V126H634.722L636.945 120.24L628.548 117ZM642.251 81.495V72.495H636.077L633.854 78.2546L642.251 81.495ZM690.108 81.495L698.515 78.2824L696.304 72.495H690.108V81.495ZM703.676 117L695.269 120.213L697.48 126H703.676V117ZM714.746 117V126H727.957L723.121 113.706L714.746 117ZM670.938 5.62499L679.314 2.33067L677.07 -3.37501H670.938V5.62499ZM661.421 5.62499V-3.37501H655.293L653.047 2.32627L661.421 5.62499ZM645.693 72.45L637.29 69.227L632.602 81.45H645.693V72.45ZM666.146 19.125L674.549 15.902L666.146 -6.0071L657.743 15.902L666.146 19.125ZM686.598 72.45V81.45H699.69L695.001 69.227L686.598 72.45ZM617.546 126H628.548V108H617.546V126ZM636.945 120.24L650.647 84.7354L633.854 78.2546L620.152 113.76L636.945 120.24ZM642.251 90.495H690.108V72.495H642.251V90.495ZM681.701 84.7076L695.269 120.213L712.083 113.787L698.515 78.2824L681.701 84.7076ZM703.676 126H714.746V108H703.676V126ZM723.121 113.706L679.314 2.33067L662.563 8.91932L706.37 120.294L723.121 113.706ZM670.938 -3.37501H661.421V14.625H670.938V-3.37501ZM653.047 2.32627L609.172 113.701L625.92 120.299L669.795 8.92371L653.047 2.32627ZM654.096 75.673L674.549 22.348L657.743 15.902L637.29 69.227L654.096 75.673ZM657.743 22.348L678.195 75.673L695.001 69.227L674.549 15.902L657.743 22.348ZM686.598 63.45H645.693V81.45H686.598V63.45ZM772.88 113.085L767.055 106.224L767.039 106.238L767.023 106.252L772.88 113.085ZM777.538 87.03L770.158 92.1818L770.181 92.2149L770.205 92.2478L777.538 87.03ZM770.518 81.1575L766.351 89.1346L766.398 89.1592L766.445 89.1832L770.518 81.1575ZM759.988 76.5675L756.739 84.9606L756.799 84.9838L756.859 85.0061L759.988 76.5675ZM752.158 73.3275L748.445 81.5261L748.474 81.539L748.502 81.5518L752.158 73.3275ZM746.353 69.48L739.895 75.7483L739.941 75.7965L739.989 75.844L746.353 69.48ZM747.635 55.9125L741.886 48.9878L741.854 49.0148L741.822 49.042L747.635 55.9125ZM772.34 61.11L765.176 66.5572L772.212 75.8112L779.408 66.6814L772.34 61.11ZM776.863 55.3725L783.931 60.9439L788.579 55.0476L783.611 49.4179L776.863 55.3725ZM767.683 48.285L763.701 56.3563L763.722 56.3667L763.743 56.377L767.683 48.285ZM745.475 48.2175L749.323 56.3534L749.368 56.3322L749.412 56.3106L745.475 48.2175ZM737.645 54.765L745.058 59.8689L745.077 59.8408L745.097 59.8126L737.645 54.765ZM737.443 72.9225L730.294 78.3895L730.353 78.4678L730.415 78.5448L737.443 72.9225ZM744.26 78.525L748.543 70.6091L748.543 70.6091L744.26 78.525ZM752.765 82.5075L749.423 90.8638L749.475 90.8847L749.528 90.905L752.765 82.5075ZM768.02 90.405L761.09 96.1472L761.138 96.205L761.187 96.2621L768.02 90.405ZM765.455 107.617L759.615 100.77L759.615 100.77L765.455 107.617ZM742.91 107.887L737.679 115.211L737.711 115.234L737.743 115.256L742.91 107.887ZM734.473 97.56L742.555 93.6012L736.792 81.8353L727.878 91.4359L734.473 97.56ZM729.208 103.23L722.613 97.1059L718.449 101.59L721.087 107.111L729.208 103.23ZM739.4 115.042L734.553 122.626L734.581 122.644L734.609 122.661L739.4 115.042ZM754.52 128.16C763.718 128.16 772.059 125.642 778.737 119.918L767.023 106.252C764.251 108.628 760.353 110.16 754.52 110.16V128.16ZM778.705 119.946C785.721 113.989 789.035 105.867 789.035 96.615H771.035C771.035 101.223 769.579 104.081 767.055 106.224L778.705 119.946ZM789.035 96.615C789.035 91.4369 787.983 86.1859 784.871 81.8122L770.205 92.2478C770.423 92.5541 771.035 93.6931 771.035 96.615H789.035ZM784.917 81.8782C782.275 78.0935 778.712 75.2233 774.591 73.1318L766.445 89.1832C768.353 90.1517 769.47 91.1965 770.158 92.1818L784.917 81.8782ZM774.685 73.1804C771.262 71.3922 767.392 69.714 763.117 68.1289L756.859 85.0061C760.594 86.391 763.744 87.7728 766.351 89.1346L774.685 73.1804ZM763.237 68.1744C760.567 67.1409 758.094 66.1168 755.813 65.1032L748.502 81.5518C751.082 82.6982 753.829 83.8341 756.739 84.9606L763.237 68.1744ZM755.87 65.1289C754.238 64.3898 753.273 63.672 752.717 63.116L739.989 75.844C742.403 78.258 745.307 80.1052 748.445 81.5261L755.87 65.1289ZM752.811 63.2117C752.841 63.2432 752.893 63.3025 752.949 63.3897C753.005 63.4775 753.051 63.5698 753.085 63.657C753.156 63.8426 753.125 63.8839 753.125 63.675H735.125C735.125 68.1058 736.613 72.3678 739.895 75.7483L752.811 63.2117ZM753.125 63.675C753.125 63.4265 753.148 63.2665 753.166 63.1775C753.183 63.0914 753.2 63.0539 753.203 63.0462C753.206 63.0393 753.213 63.0252 753.236 62.9954C753.26 62.9638 753.322 62.8906 753.449 62.783L741.822 49.042C737.365 52.8133 735.125 57.9611 735.125 63.675H753.125ZM753.384 62.8372C753.821 62.4747 754.725 61.9425 756.883 61.9425V43.9425C751.481 43.9425 746.22 45.3903 741.886 48.9878L753.384 62.8372ZM756.883 61.9425C759.9 61.9425 762.524 63.0692 765.176 66.5572L779.505 55.6627C773.877 48.2608 766.195 43.9425 756.883 43.9425V61.9425ZM779.408 66.6814L783.931 60.9439L769.795 49.8011L765.272 55.5386L779.408 66.6814ZM783.611 49.4179C780.183 45.5326 776.186 42.4151 771.622 40.193L763.743 56.377C766.019 57.4849 768.142 59.0924 770.114 61.3271L783.611 49.4179ZM771.665 40.2137C767.015 37.9201 762.026 36.7875 756.815 36.7875V54.7875C759.345 54.7875 761.6 55.3199 763.701 56.3563L771.665 40.2137ZM756.815 36.7875C751.416 36.7875 746.258 37.8279 741.538 40.1244L749.412 56.3106C751.352 55.367 753.755 54.7875 756.815 54.7875V36.7875ZM741.627 40.0816C736.981 42.279 733.07 45.4717 730.194 49.7174L745.097 59.8126C746 58.4783 747.309 57.306 749.323 56.3534L741.627 40.0816ZM730.232 49.6611C727.238 54.0096 725.81 58.9654 725.81 64.215H743.81C743.81 62.3546 744.272 61.0104 745.058 59.8689L730.232 49.6611ZM725.81 64.215C725.81 69.265 727.098 74.2105 730.294 78.3895L744.592 67.4554C744.278 67.0445 743.81 66.185 743.81 64.215H725.81ZM730.415 78.5448C733.028 81.8111 736.262 84.4309 739.978 86.4409L748.543 70.6091C746.768 69.6491 745.457 68.5339 744.471 67.3002L730.415 78.5448ZM739.978 86.4409C743.03 88.0922 746.179 89.5664 749.423 90.8638L756.108 74.1512C753.501 73.1086 750.98 71.9278 748.543 70.6091L739.978 86.4409ZM749.528 90.905C753.185 92.3149 756.2 93.5444 758.6 94.5971L765.83 78.1129C763.1 76.9156 759.816 75.5801 756.003 74.11L749.528 90.905ZM758.6 94.5971C760.33 95.3558 760.948 95.9759 761.09 96.1472L774.95 84.6628C772.482 81.6841 769.23 79.6042 765.83 78.1129L758.6 94.5971ZM761.187 96.2621C761.094 96.1533 761.027 96.0504 760.983 95.9699C760.941 95.8913 760.932 95.8553 760.941 95.8823C760.961 95.9465 761.045 96.2673 761.045 96.9525H779.045C779.045 92.7605 778.021 88.2431 774.854 84.5479L761.187 96.2621ZM761.045 96.9525C761.045 99.1691 760.417 100.086 759.615 100.77L771.296 114.465C776.613 109.929 779.045 103.736 779.045 96.9525H761.045ZM759.615 100.77C758.291 101.899 756.733 102.532 754.453 102.532V120.532C760.723 120.532 766.499 118.556 771.296 114.465L759.615 100.77ZM754.453 102.532C752.073 102.532 750.03 101.888 748.078 100.519L737.743 115.256C742.721 118.747 748.373 120.532 754.453 120.532V102.532ZM748.141 100.564C746.066 99.0814 744.16 96.8774 742.555 93.6012L726.39 101.519C729.105 107.063 732.825 111.744 737.679 115.211L748.141 100.564ZM727.878 91.4359L722.613 97.1059L735.803 109.354L741.068 103.684L727.878 91.4359ZM721.087 107.111C724.176 113.573 728.649 118.852 734.553 122.626L744.247 107.459C741.421 105.653 739.1 103.057 737.328 99.3494L721.087 107.111ZM734.609 122.661C740.562 126.405 747.3 128.16 754.52 128.16V110.16C750.311 110.16 746.969 109.17 744.191 107.424L734.609 122.661ZM803.406 117H794.406V126H803.406V117ZM813.261 117V126H822.261V117H813.261ZM815.624 63L807.84 58.4808L807.829 58.5008L807.817 58.521L815.624 63ZM822.576 56.25L818.136 48.4215L818.136 48.4215L822.576 56.25ZM847.484 59.4225L840.696 65.3321L840.733 65.3746L840.77 65.4166L847.484 59.4225ZM852.546 117H843.546V126H852.546V117ZM862.401 117V126H871.401V117H862.401ZM855.449 53.145L848.849 59.2645L848.878 59.2955L848.907 59.3264L855.449 53.145ZM821.969 49.095L817.56 41.2485L817.541 41.2591L817.522 41.2699L821.969 49.095ZM813.261 57.33H804.261V91.3226L821.082 61.7835L813.261 57.33ZM813.261 0.832495H822.261V-8.16751H813.261V0.832495ZM803.406 0.832495V-8.16751H794.406V0.832495H803.406ZM803.406 126H813.261V108H803.406V126ZM822.261 117V71.9775H804.261V117H822.261ZM822.261 71.9775C822.261 70.27 822.656 68.8273 823.43 67.479L807.817 58.521C805.441 62.6627 804.261 67.205 804.261 71.9775H822.261ZM823.407 67.5192C824.166 66.2117 825.282 65.0619 827.016 64.0785L818.136 48.4215C813.84 50.8581 810.321 54.2083 807.84 58.4808L823.407 67.5192ZM827.016 64.0785C828.409 63.2887 830.429 62.685 833.444 62.685V44.685C827.998 44.685 822.773 45.7913 818.136 48.4215L827.016 64.0785ZM833.444 62.685C837.411 62.685 839.4 63.8442 840.696 65.3321L854.272 53.5129C848.907 47.3508 841.536 44.685 833.444 44.685V62.685ZM840.77 65.4166C842.172 66.9868 843.546 69.9698 843.546 75.7575H861.546C861.546 67.3252 859.545 59.4182 854.197 53.4284L840.77 65.4166ZM843.546 75.7575V117H861.546V75.7575H843.546ZM852.546 126H862.401V108H852.546V126ZM871.401 117V73.8675H853.401V117H871.401ZM871.401 73.8675C871.401 63.4155 868.657 54.0186 861.99 46.9636L848.907 59.3264C851.511 62.0814 853.401 66.4995 853.401 73.8675H871.401ZM862.048 47.0255C855.438 39.8968 846.555 36.72 836.549 36.72V54.72C842.562 54.72 846.279 56.4932 848.849 59.2645L862.048 47.0255ZM836.549 36.72C829.662 36.72 823.202 38.0788 817.56 41.2485L826.377 56.9415C828.745 55.6112 832.005 54.72 836.549 54.72V36.72ZM817.522 41.2699C812.466 44.1429 808.247 47.9479 805.44 52.8764L821.082 61.7835C821.965 60.232 823.551 58.5471 826.415 56.9201L817.522 41.2699ZM822.261 57.33V0.832495H804.261V57.33H822.261ZM813.261 -8.16751H803.406V9.83249H813.261V-8.16751ZM794.406 0.832495V117H812.406V0.832495H794.406ZM890.154 117H881.154V126H890.154V117ZM900.009 117V126H909.009V117H900.009ZM902.642 63.135L895.233 58.0254L895.223 58.0391L895.214 58.0528L902.642 63.135ZM909.594 56.79L905.182 48.9458L905.155 48.9607L905.129 48.9758L909.594 56.79ZM928.224 56.4525L924.35 64.5759L932.402 68.4161L936.313 60.3983L928.224 56.4525ZM932.274 48.15L940.363 52.0958L944.334 43.9556L936.169 40.0363L932.274 48.15ZM900.009 58.0725H891.009L907.925 62.3549L900.009 58.0725ZM900.009 47.88H909.009V38.88H900.009V47.88ZM890.154 47.88V38.88H881.154V47.88H890.154ZM890.154 126H900.009V108H890.154V126ZM909.009 117V71.37H891.009V117H909.009ZM909.009 71.37C909.009 70.3748 909.271 69.3839 910.069 68.2172L895.214 58.0528C892.502 62.016 891.009 66.5152 891.009 71.37H909.009ZM910.051 68.2446C911.061 66.7791 912.36 65.5753 914.059 64.6042L905.129 48.9758C901.158 51.2447 897.822 54.2709 895.233 58.0254L910.051 68.2446ZM914.006 64.6342C915.608 63.7334 917.112 63.36 918.639 63.36V45.36C913.867 45.36 909.34 46.6066 905.182 48.9458L914.006 64.6342ZM918.639 63.36C920.858 63.36 922.718 63.7974 924.35 64.5759L932.098 48.3291C927.881 46.3176 923.35 45.36 918.639 45.36V63.36ZM936.313 60.3983L940.363 52.0958L924.185 44.2042L920.135 52.5067L936.313 60.3983ZM936.169 40.0363C931.392 37.7436 926.154 36.72 920.664 36.72V54.72C923.904 54.72 926.406 55.3164 928.38 56.2637L936.169 40.0363ZM920.664 36.72C914.646 36.72 908.945 38.0636 903.895 41.084C898.847 44.1029 894.96 48.4906 892.093 53.7901L907.925 62.3549C909.513 59.4194 911.296 57.6308 913.133 56.5322C914.968 55.4351 917.367 54.72 920.664 54.72V36.72ZM909.009 58.0725V47.88H891.009V58.0725H909.009ZM900.009 38.88H890.154V56.88H900.009V38.88ZM881.154 47.88V117H899.154V47.88H881.154ZM995.65 114.705L1000.25 122.441L1000.25 122.441L995.65 114.705ZM1007.6 102.42H1016.6V68.4026L999.775 97.9693L1007.6 102.42ZM1007.6 117H998.598V126H1007.6V117ZM1017.45 117V126H1026.45V117H1017.45ZM1017.45 47.88H1026.45V38.88H1017.45V47.88ZM1007.6 47.88V38.88H998.598V47.88H1007.6ZM1007.6 62.2575L999.562 66.3104L1016.6 62.2575H1007.6ZM995.988 50.1075L991.5 57.9089L991.515 57.9174L991.53 57.9259L995.988 50.1075ZM961.293 50.5125L965.972 58.2003L965.982 58.1945L965.991 58.1888L961.293 50.5125ZM949.008 63.54L941.104 59.2348L941.091 59.2597L941.077 59.2846L949.008 63.54ZM949.075 101.34L941.172 105.645L941.185 105.67L941.199 105.694L949.075 101.34ZM961.428 114.435L956.7 122.093L956.724 122.108L956.748 122.123L961.428 114.435ZM967.638 106.942L962.969 114.637L962.988 114.648L963.007 114.66L967.638 106.942ZM958.188 67.86L950.277 63.568L950.277 63.568L958.188 67.86ZM967.638 57.9375L972.243 65.6702L972.275 65.6512L972.306 65.632L967.638 57.9375ZM995.178 57.9375L990.509 65.632L990.541 65.6512L990.573 65.6702L995.178 57.9375ZM1004.56 67.86L996.614 72.0865L996.632 72.1193L996.65 72.152L1004.56 67.86ZM1004.56 97.02L1012.47 101.312L1012.48 101.294L1012.49 101.277L1004.56 97.02ZM995.11 107.01L999.754 114.72L999.766 114.712L999.779 114.704L995.11 107.01ZM978.978 128.16C986.627 128.16 993.788 126.283 1000.25 122.441L991.051 106.969C987.522 109.067 983.568 110.16 978.978 110.16V128.16ZM1000.25 122.441C1006.63 118.646 1011.71 113.399 1015.42 106.871L999.775 97.9693C997.55 101.881 994.659 104.824 991.051 106.969L1000.25 122.441ZM998.598 102.42V117H1016.6V102.42H998.598ZM1007.6 126H1017.45V108H1007.6V126ZM1026.45 117V47.88H1008.45V117H1026.45ZM1017.45 38.88H1007.6V56.88H1017.45V38.88ZM998.598 47.88V62.2575H1016.6V47.88H998.598ZM1015.63 58.2046C1012.21 51.4187 1007.08 46.0728 1000.45 42.2891L991.53 57.9259C995.154 59.9922 997.764 62.7463 999.562 66.3104L1015.63 58.2046ZM1000.48 42.3061C993.934 38.5436 986.7 36.72 978.978 36.72V54.72C983.766 54.72 987.871 55.8214 991.5 57.9089L1000.48 42.3061ZM978.978 36.72C970.876 36.72 963.333 38.7117 956.594 42.8362L965.991 58.1888C969.693 55.9232 973.939 54.72 978.978 54.72V36.72ZM956.613 42.8247C950.029 46.8328 944.845 52.3667 941.104 59.2348L956.911 67.8452C959.2 63.6433 962.207 60.4922 965.972 58.2003L956.613 42.8247ZM941.077 59.2846C937.326 66.276 935.553 74.045 935.553 82.3725H953.553C953.553 76.66 954.75 71.874 956.938 67.7954L941.077 59.2846ZM935.553 82.3725C935.553 90.7912 937.349 98.6277 941.172 105.645L956.979 97.0348C954.771 92.9823 953.553 88.1738 953.553 82.3725H935.553ZM941.199 105.694C944.976 112.527 950.155 118.053 956.7 122.093L966.156 106.777C962.35 104.427 959.295 101.223 956.952 96.9855L941.199 105.694ZM956.748 122.123C963.442 126.197 970.934 128.16 978.978 128.16V110.16C973.971 110.16 969.764 108.973 966.107 106.747L956.748 122.123ZM981.408 101.587C977.764 101.587 974.8 100.744 972.268 99.2251L963.007 114.66C968.576 118.001 974.792 119.587 981.408 119.587V101.587ZM972.306 99.248C969.703 97.6684 967.655 95.5293 966.098 92.6605L950.277 101.244C953.311 106.836 957.563 111.357 962.969 114.637L972.306 99.248ZM966.098 92.6605C964.608 89.9132 963.745 86.5857 963.745 82.44H945.745C945.745 89.1843 947.178 95.5318 950.277 101.244L966.098 92.6605ZM963.745 82.44C963.745 78.2356 964.614 74.8887 966.098 72.152L950.277 63.568C947.172 69.2913 945.745 75.6644 945.745 82.44H963.745ZM966.098 72.152C967.647 69.2971 969.676 67.1989 972.243 65.6702L963.033 50.2048C957.59 53.4461 953.318 57.9629 950.277 63.568L966.098 72.152ZM972.306 65.632C974.759 64.1436 977.701 63.2925 981.408 63.2925V45.2925C974.764 45.2925 968.526 46.8714 962.969 50.243L972.306 65.632ZM981.408 63.2925C985.114 63.2925 988.056 64.1436 990.509 65.632L999.846 50.243C994.289 46.8714 988.051 45.2925 981.408 45.2925V63.2925ZM990.573 65.6702C993.124 67.1894 995.114 69.2661 996.614 72.0865L1012.51 63.6335C1009.51 57.9939 1005.24 53.4556 999.783 50.2048L990.573 65.6702ZM996.65 72.152C998.134 74.8887 999.003 78.2356 999.003 82.44H1017C1017 75.6644 1015.58 69.2913 1012.47 63.568L996.65 72.152ZM999.003 82.44C999.003 86.5837 998.141 89.9502 996.631 92.7631L1012.49 101.277C1015.57 95.5398 1017 89.1863 1017 82.44H999.003ZM996.65 92.728C995.093 95.5968 993.045 97.7359 990.442 99.3155L999.779 114.704C1005.19 111.424 1009.44 106.903 1012.47 101.312L996.65 92.728ZM990.467 99.3003C988.071 100.743 985.147 101.587 981.408 101.587V119.587C988.019 119.587 994.23 118.047 999.754 114.72L990.467 99.3003Z" fill="white"/>
</g>
<defs>
<filter id="filter0_d" x="0.474976" y="0.83252" width="1020.98" height="126.328" filterUnits="userSpaceOnUse" color-interpolation-filters="sRGB">
<feFlood flood-opacity="0" result="BackgroundImageFix"/>
<feColorMatrix in="SourceAlpha" type="matrix" values="0 0 0 0 0 0 0 0 0 0 0 0 0 0 0 0 0 0 127 0"/>
<feOffset dy="4"/>
<feGaussianBlur stdDeviation="2"/>
<feColorMatrix type="matrix" values="0 0 0 0 0 0 0 0 0 0 0 0 0 0 0 0 0 0 0.25 0"/>
<feBlend mode="normal" in2="BackgroundImageFix" result="effect1_dropShadow"/>
<feBlend mode="normal" in="SourceGraphic" in2="effect1_dropShadow" result="shape"/>
</filter>
</defs>
</svg>
