<svg width="979" height="263" viewBox="0 0 979 263" fill="none" xmlns="http://www.w3.org/2000/svg">
<path id="Gaurav Ashra Web Devloper" d="M73.4425 116.19L72.1946 112.39L72.1946 112.39L73.4425 116.19ZM89.9125 107.28L87.4275 104.146C87.4229 104.149 87.4183 104.153 87.4137 104.157L89.9125 107.28ZM101.86 92.43L98.2823 90.6411L98.2823 90.6411L101.86 92.43ZM106.315 61.785H110.315C110.315 59.5759 108.524 57.785 106.315 57.785V61.785ZM54.745 61.785V57.785C52.5359 57.785 50.745 59.5759 50.745 61.785H54.745ZM54.745 70.0875H50.745C50.745 72.2966 52.5359 74.0875 54.745 74.0875V70.0875ZM95.785 70.0875H99.785C99.785 67.8784 97.9941 66.0875 95.785 66.0875V70.0875ZM92.3425 88.7175L88.7942 86.8709C88.7893 86.8805 88.7843 86.89 88.7795 86.8996L92.3425 88.7175ZM83.1625 100.057L80.6374 96.9553C80.6315 96.9601 80.6256 96.9649 80.6197 96.9698L83.1625 100.057ZM70.2025 107.28L68.8953 103.5L68.8843 103.503L70.2025 107.28ZM38.14 106.132L36.4501 109.758C36.4624 109.764 36.4748 109.769 36.4871 109.775L38.14 106.132ZM24.1675 95.805L21.1928 98.4792C21.1973 98.4842 21.2018 98.4892 21.2064 98.4942L24.1675 95.805ZM14.785 80.28L11.035 81.672C11.0393 81.6835 11.0436 81.6949 11.048 81.7064L14.785 80.28ZM14.4475 42.8175L10.6707 41.5C10.6687 41.5057 10.6667 41.5114 10.6648 41.5172L14.4475 42.8175ZM23.155 27.36L20.0946 24.7844L20.0922 24.7872L23.155 27.36ZM37.1275 16.6275L35.4215 13.0095L35.4101 13.015L37.1275 16.6275ZM76.5475 17.1L74.8826 20.7371C74.8897 20.7403 74.8968 20.7435 74.9039 20.7467L76.5475 17.1ZM92.4775 28.6425L89.4724 31.2825C90.2887 32.2116 91.4888 32.7109 92.7232 32.6349C93.9576 32.559 95.0875 31.9163 95.7836 30.8941L92.4775 28.6425ZM97.81 20.8125L101.116 23.0641C102.171 21.5148 102.009 19.4406 100.726 18.0742L97.81 20.8125ZM79.7875 8.32499L81.3992 4.66407L81.3992 4.66407L79.7875 8.32499ZM32.605 8.39249L34.2692 12.0299C34.2757 12.0269 34.2822 12.0239 34.2887 12.0209L32.605 8.39249ZM15.1225 21.3525L18.1313 23.9883C18.1348 23.9842 18.1384 23.9801 18.142 23.976L15.1225 21.3525ZM4.1875 39.915L0.428327 38.548C0.426651 38.5526 0.424983 38.5572 0.423324 38.5619L4.1875 39.915ZM4.66 83.9925L0.942807 85.4698L0.946094 85.4781L4.66 83.9925ZM16.27 102.352L13.3557 105.092C13.3599 105.097 13.364 105.101 13.3681 105.106L16.27 102.352ZM33.685 114.705L32.0466 118.354L32.0559 118.358L33.685 114.705ZM55.285 123.16C61.8026 123.16 68.2758 122.097 74.6904 119.99L72.1946 112.39C66.5492 114.243 60.9174 115.16 55.285 115.16V123.16ZM74.6904 119.99C81.1739 117.861 87.0876 114.662 92.4113 110.403L87.4137 104.157C82.8374 107.818 77.7711 110.559 72.1946 112.39L74.6904 119.99ZM92.3975 110.414C97.87 106.076 102.217 100.659 105.438 94.2189L98.2823 90.6411C95.5626 96.0806 91.945 100.564 87.4275 104.146L92.3975 110.414ZM105.438 94.2189C108.732 87.6293 110.315 80.0889 110.315 71.7075H102.315C102.315 79.0761 100.928 85.3507 98.2823 90.6411L105.438 94.2189ZM110.315 71.7075V61.785H102.315V71.7075H110.315ZM106.315 57.785H54.745V65.785H106.315V57.785ZM50.745 61.785V70.0875H58.745V61.785H50.745ZM54.745 74.0875H95.785V66.0875H54.745V74.0875ZM91.785 70.0875V73.935H99.785V70.0875H91.785ZM91.785 73.935C91.785 78.7996 90.7649 83.0842 88.7942 86.8709L95.8908 90.564C98.5101 85.5308 99.785 79.9604 99.785 73.935H91.785ZM88.7795 86.8996C86.7844 90.8099 84.0794 94.1537 80.6374 96.9553L85.6876 103.16C89.9856 99.6613 93.4006 95.4451 95.9055 90.5354L88.7795 86.8996ZM80.6197 96.9698C77.1724 99.8087 73.2734 101.986 68.8953 103.5L71.5097 111.06C76.7616 109.244 81.5026 106.606 85.7053 103.145L80.6197 96.9698ZM68.8843 103.503C64.537 105.021 60.0776 105.777 55.4875 105.777V113.777C60.9774 113.777 66.328 112.869 71.5207 111.057L68.8843 103.503ZM55.4875 105.777C49.8151 105.777 44.5998 104.671 39.7929 102.49L36.4871 109.775C42.3902 112.454 48.7399 113.777 55.4875 113.777V105.777ZM39.8299 102.507C35.0099 100.26 30.7825 97.1391 27.1286 93.1158L21.2064 98.4942C25.5625 103.291 30.6501 107.055 36.4501 109.758L39.8299 102.507ZM27.1422 93.1308C23.4831 89.0606 20.6062 84.3142 18.522 78.8536L11.048 81.7064C13.4638 88.0358 16.8419 93.6394 21.1928 98.4792L27.1422 93.1308ZM18.535 78.888C16.5091 73.4305 15.4775 67.4936 15.4775 61.0425H7.4775C7.4775 68.3614 8.6509 75.2495 11.035 81.672L18.535 78.888ZM15.4775 61.0425C15.4775 55.0731 16.401 49.4391 18.2302 44.1178L10.6648 41.5172C8.53396 47.7159 7.4775 54.2319 7.4775 61.0425H15.4775ZM18.2243 44.135C20.0969 38.7668 22.7643 34.0441 26.2178 29.9328L20.0922 24.7872C15.9857 29.6759 12.8481 35.2582 10.6707 41.5L18.2243 44.135ZM26.2154 29.9356C29.6633 25.8387 33.8592 22.6103 38.8449 20.24L35.4101 13.015C29.4158 15.8647 24.2967 19.7913 20.0946 24.7844L26.2154 29.9356ZM38.8335 20.2454C43.7617 17.9216 49.4431 16.7125 55.96 16.7125V8.71249C48.4369 8.71249 41.5633 10.1134 35.4215 13.0096L38.8335 20.2454ZM55.96 16.7125C62.7462 16.7125 69.038 18.0617 74.8826 20.7371L78.2124 13.4629C71.277 10.2883 63.8438 8.71249 55.96 8.71249V16.7125ZM74.9039 20.7467C80.8227 23.4143 85.6533 26.9352 89.4724 31.2825L95.4826 26.0025C90.8417 20.7198 85.0523 16.5457 78.1911 13.4533L74.9039 20.7467ZM95.7836 30.8941L101.116 23.0641L94.5039 18.5609L89.1714 26.3909L95.7836 30.8941ZM100.726 18.0742C95.4619 12.4691 88.9965 8.00877 81.3992 4.66407L78.1758 11.9859C84.8885 14.9412 90.4381 18.8059 94.8942 23.5508L100.726 18.0742ZM81.3992 4.66407C73.6852 1.26796 65.2312 -0.400005 56.095 -0.400005V7.6C64.2388 7.6 71.5798 9.08203 78.1758 11.9859L81.3992 4.66407ZM56.095 -0.400005C46.8288 -0.400005 38.4101 1.28892 30.9213 4.76413L34.2887 12.0209C40.5699 9.10607 47.8112 7.6 56.095 7.6V-0.400005ZM30.9408 4.75511C23.5587 8.13254 17.2627 12.7905 12.103 18.729L18.142 23.976C22.5223 18.9345 27.8813 14.9524 34.2692 12.0299L30.9408 4.75511ZM12.1137 18.7167C7.01099 24.5416 3.11447 31.1611 0.428327 38.548L7.94667 41.282C10.3005 34.8089 13.694 29.0534 18.1313 23.9883L12.1137 18.7167ZM0.423324 38.5619C-2.21006 45.8875 -3.525 53.5007 -3.525 61.38H4.475C4.475 54.4093 5.63506 47.7125 7.95168 41.2681L0.423324 38.5619ZM-3.525 61.38C-3.525 69.907 -2.04615 77.9492 0.942816 85.4698L8.37718 82.5152C5.78615 75.9958 4.475 68.963 4.475 61.38H-3.525ZM0.946094 85.4781C3.9144 92.8988 8.04959 99.4486 13.3557 105.092L19.1843 99.6126C14.5904 94.7264 10.9856 89.0362 8.37391 82.5069L0.946094 85.4781ZM13.3681 105.106C18.7216 110.748 24.9557 115.17 32.0466 118.354L35.3234 111.056C29.1843 108.3 23.8084 104.487 19.1719 99.5995L13.3681 105.106ZM32.0559 118.358C39.2597 121.571 47.0187 123.16 55.285 123.16V115.16C48.0713 115.16 41.4303 113.779 35.3141 111.052L32.0559 118.358ZM177.432 114.705L179.476 118.143L179.476 118.143L177.432 114.705ZM189.379 102.42H193.379C193.379 100.605 192.157 99.0173 190.402 98.553C188.647 98.0888 186.8 98.8643 185.902 100.442L189.379 102.42ZM189.379 117H185.379C185.379 119.209 187.17 121 189.379 121V117ZM199.234 117V121C201.443 121 203.234 119.209 203.234 117H199.234ZM199.234 47.88H203.234C203.234 45.6709 201.443 43.88 199.234 43.88V47.88ZM189.379 47.88V43.88C187.17 43.88 185.379 45.6709 185.379 47.88H189.379ZM189.379 62.2575L185.808 64.0588C186.642 65.7128 188.503 66.5776 190.305 66.1489C192.107 65.7201 193.379 64.11 193.379 62.2575H189.379ZM177.769 50.1075L175.775 53.5748C175.779 53.5773 175.783 53.5798 175.788 53.5823L177.769 50.1075ZM143.074 50.5125L145.154 53.9293L145.162 53.9242L143.074 50.5125ZM130.789 63.54L127.276 61.6266C127.272 61.634 127.268 61.6413 127.264 61.6487L130.789 63.54ZM130.857 101.34L127.344 103.253C127.348 103.261 127.352 103.268 127.356 103.275L130.857 101.34ZM143.209 114.435L141.108 117.839C141.115 117.843 141.122 117.847 141.129 117.852L143.209 114.435ZM149.419 106.942L147.344 110.362C147.35 110.366 147.355 110.369 147.361 110.372L149.419 106.942ZM139.969 67.86L136.453 65.9525L136.453 65.9525L139.969 67.86ZM149.419 57.9375L151.466 61.3743C151.475 61.3686 151.485 61.363 151.494 61.3573L149.419 57.9375ZM176.959 57.9375L174.884 61.3573C174.894 61.363 174.903 61.3686 174.912 61.3743L176.959 57.9375ZM186.342 67.86L182.81 69.7384C182.815 69.7482 182.82 69.7579 182.826 69.7675L186.342 67.86ZM186.342 97.02L189.857 98.9275C189.86 98.9224 189.863 98.9172 189.866 98.912L186.342 97.02ZM176.892 107.01L178.955 110.437L178.966 110.43L176.892 107.01ZM160.759 123.16C167.559 123.16 173.829 121.501 179.476 118.143L175.387 111.267C171.044 113.849 166.199 115.16 160.759 115.16V123.16ZM179.476 118.143C185.087 114.807 189.555 110.2 192.856 104.398L185.902 100.442C183.263 105.08 179.766 108.663 175.387 111.267L179.476 118.143ZM185.379 102.42V117H193.379V102.42H185.379ZM189.379 121H199.234V113H189.379V121ZM203.234 117V47.88H195.234V117H203.234ZM199.234 43.88H189.379V51.88H199.234V43.88ZM185.379 47.88V62.2575H193.379V47.88H185.379ZM192.951 60.4562C189.979 54.5653 185.55 49.9393 179.75 46.6326L175.788 53.5823C180.248 56.1257 183.559 59.5997 185.808 64.0588L192.951 60.4562ZM179.763 46.6402C174.031 43.343 167.666 41.72 160.759 41.72V49.72C166.362 49.72 171.337 51.022 175.775 53.5748L179.763 46.6402ZM160.759 41.72C153.508 41.72 146.881 43.4927 140.986 47.1008L145.162 53.9242C149.707 51.1423 154.87 49.72 160.759 49.72V41.72ZM140.994 47.0957C135.193 50.6271 130.614 55.4991 127.276 61.6266L134.302 65.4534C136.994 60.5109 140.605 56.6979 145.154 53.9293L140.994 47.0957ZM127.264 61.6487C123.947 67.831 122.334 74.7714 122.334 82.3725H130.334C130.334 75.9336 131.691 70.319 134.314 65.4313L127.264 61.6487ZM122.334 82.3725C122.334 90.0641 123.97 97.0595 127.344 103.253L134.369 99.4266C131.713 94.5505 130.334 88.9009 130.334 82.3725H122.334ZM127.356 103.275C130.735 109.387 135.324 114.268 141.108 117.839L145.31 111.031C140.744 108.212 137.098 104.363 134.357 99.4047L127.356 103.275ZM141.129 117.852C146.979 121.413 153.559 123.16 160.759 123.16V115.16C154.909 115.16 149.789 113.757 145.289 111.018L141.129 117.852ZM163.189 106.587C158.719 106.587 154.852 105.538 151.477 103.513L147.361 110.372C152.086 113.207 157.399 114.587 163.189 114.587V106.587ZM151.494 103.523C148.112 101.471 145.452 98.67 143.485 95.045L136.453 98.86C139.076 103.695 142.716 107.554 147.344 110.362L151.494 103.523ZM143.485 95.045C141.547 91.4739 140.527 87.3075 140.527 82.44H132.527C132.527 88.4625 133.801 93.9711 136.453 98.86L143.485 95.045ZM140.527 82.44C140.527 77.5214 141.55 73.3339 143.485 69.7675L136.453 65.9525C133.798 70.8461 132.527 76.3786 132.527 82.44H140.527ZM143.485 69.7675C145.448 66.1487 148.1 63.3787 151.466 61.3743L147.372 54.5007C142.728 57.2663 139.08 61.1113 136.453 65.9525L143.485 69.7675ZM151.494 61.3573C154.809 59.3458 158.667 58.2925 163.189 58.2925V50.2925C157.361 50.2925 152.039 51.6692 147.344 54.5177L151.494 61.3573ZM163.189 58.2925C167.711 58.2925 171.569 59.3458 174.884 61.3573L179.034 54.5177C174.339 51.6692 169.017 50.2925 163.189 50.2925V58.2925ZM174.912 61.3743C178.271 63.3745 180.893 66.1349 182.81 69.7384L189.873 65.9815C187.29 61.1251 183.657 57.2705 179.006 54.5007L174.912 61.3743ZM182.826 69.7675C184.761 73.3339 185.784 77.5214 185.784 82.44H193.784C193.784 76.3786 192.512 70.8461 189.857 65.9525L182.826 69.7675ZM185.784 82.44C185.784 87.3067 184.763 91.5029 182.817 95.128L189.866 98.912C192.51 93.9871 193.784 88.4633 193.784 82.44H185.784ZM182.826 95.1125C180.859 98.7375 178.199 101.538 174.817 103.59L178.966 110.43C183.594 107.622 187.234 103.763 189.857 98.9275L182.826 95.1125ZM174.828 103.583C171.563 105.55 167.726 106.587 163.189 106.587V114.587C169.002 114.587 174.3 113.24 178.955 110.437L174.828 103.583ZM278.715 112.14L281.599 114.912C281.603 114.908 281.607 114.903 281.612 114.899L278.715 112.14ZM285.465 47.88H289.465C289.465 45.6709 287.674 43.88 285.465 43.88V47.88ZM275.61 47.88V43.88C273.401 43.88 271.61 45.6709 271.61 47.88H275.61ZM271.155 105.322L268.024 102.833L268.021 102.838L271.155 105.322ZM241.32 105.322L238.189 107.812C238.194 107.818 238.199 107.824 238.204 107.831L241.32 105.322ZM236.865 47.88H240.865C240.865 45.6709 239.074 43.88 236.865 43.88V47.88ZM227.01 47.88V43.88C224.801 43.88 223.01 45.6709 223.01 47.88H227.01ZM233.76 112.14L230.864 114.899C230.868 114.903 230.873 114.908 230.877 114.912L233.76 112.14ZM256.238 123.16C267.166 123.16 275.991 120.744 281.599 114.912L275.832 109.368C272.439 112.896 266.28 115.16 256.238 115.16V123.16ZM281.612 114.899C287.177 109.055 289.465 99.8503 289.465 88.38H281.465C281.465 99.1397 279.253 105.775 275.819 109.381L281.612 114.899ZM289.465 88.38V47.88H281.465V88.38H289.465ZM285.465 43.88H275.61V51.88H285.465V43.88ZM271.61 47.88V86.625H279.61V47.88H271.61ZM271.61 86.625C271.61 95.11 270.126 100.19 268.024 102.833L274.286 107.812C278.125 102.985 279.61 95.6 279.61 86.625H271.61ZM268.021 102.838C266.169 105.174 262.653 106.857 256.238 106.857V114.857C263.862 114.857 270.292 112.851 274.29 107.807L268.021 102.838ZM256.238 106.857C249.884 106.857 246.341 105.181 244.436 102.814L238.204 107.831C242.239 112.844 248.642 114.857 256.238 114.857V106.857ZM244.451 102.833C242.35 100.19 240.865 95.11 240.865 86.625H232.865C232.865 95.6 234.351 102.985 238.189 107.812L244.451 102.833ZM240.865 86.625V47.88H232.865V86.625H240.865ZM236.865 43.88H227.01V51.88H236.865V43.88ZM223.01 47.88V88.38H231.01V47.88H223.01ZM223.01 88.38C223.01 99.8503 225.298 109.055 230.864 114.899L236.657 109.381C233.222 105.775 231.01 99.1397 231.01 88.38H223.01ZM230.877 114.912C236.484 120.744 245.31 123.16 256.238 123.16V115.16C246.196 115.16 240.036 112.896 236.644 109.368L230.877 114.912ZM313.327 117H309.327C309.327 119.209 311.118 121 313.327 121V117ZM323.182 117V121C325.391 121 327.182 119.209 327.182 117H323.182ZM325.814 63.135L322.522 60.8641C322.519 60.8681 322.516 60.8722 322.513 60.8763L325.814 63.135ZM332.767 56.79L330.806 53.3037C330.798 53.3081 330.79 53.3126 330.782 53.317L332.767 56.79ZM351.397 56.4525L349.675 60.0629C351.657 61.008 354.03 60.1793 354.992 58.2062L351.397 56.4525ZM355.447 48.15L359.042 49.9037C359.509 48.9463 359.575 47.8421 359.225 46.836C358.875 45.8299 358.138 45.0049 357.178 44.5439L355.447 48.15ZM323.182 58.0725H319.182C319.182 59.9035 320.425 61.5008 322.2 61.9502C323.975 62.3995 325.829 61.5863 326.7 59.9758L323.182 58.0725ZM323.182 47.88H327.182C327.182 45.6709 325.391 43.88 323.182 43.88V47.88ZM313.327 47.88V43.88C311.118 43.88 309.327 45.6709 309.327 47.88H313.327ZM313.327 121H323.182V113H313.327V121ZM327.182 117V71.37H319.182V117H327.182ZM327.182 71.37C327.182 69.3027 327.786 67.3373 329.116 65.3937L322.513 60.8763C320.333 64.0627 319.182 67.5873 319.182 71.37H327.182ZM329.107 65.4059C330.556 63.3046 332.421 61.5946 334.752 60.263L330.782 53.317C327.443 55.2254 324.672 57.7454 322.522 60.8641L329.107 65.4059ZM334.728 60.2763C337.04 58.9759 339.383 58.36 341.812 58.36V50.36C337.941 50.36 334.254 51.364 330.806 53.3037L334.728 60.2763ZM341.812 58.36C344.723 58.36 347.325 58.9419 349.675 60.0629L353.119 52.8421C349.619 51.1731 345.831 50.36 341.812 50.36V58.36ZM354.992 58.2062L359.042 49.9037L351.852 46.3963L347.802 54.6988L354.992 58.2062ZM357.178 44.5439C353.18 42.6249 348.702 41.72 343.837 41.72V49.72C347.702 49.72 350.964 50.4351 353.716 51.7561L357.178 44.5439ZM343.837 41.72C338.575 41.72 333.791 42.889 329.634 45.3752C325.478 47.8607 322.175 51.5264 319.664 56.1692L326.7 59.9758C328.643 56.3836 331.011 53.8731 333.74 52.2411C336.468 50.6097 339.784 49.72 343.837 49.72V41.72ZM327.182 58.0725V47.88H319.182V58.0725H327.182ZM323.182 43.88H313.327V51.88H323.182V43.88ZM309.327 47.88V117H317.327V47.88H309.327ZM418.823 114.705L420.867 118.143L420.867 118.143L418.823 114.705ZM430.771 102.42H434.771C434.771 100.605 433.548 99.0173 431.794 98.553C430.039 98.0888 428.192 98.8643 427.294 100.442L430.771 102.42ZM430.771 117H426.771C426.771 119.209 428.561 121 430.771 121V117ZM440.626 117V121C442.835 121 444.626 119.209 444.626 117H440.626ZM440.626 47.88H444.626C444.626 45.6709 442.835 43.88 440.626 43.88V47.88ZM430.771 47.88V43.88C428.561 43.88 426.771 45.6709 426.771 47.88H430.771ZM430.771 62.2575L427.199 64.0588C428.033 65.7128 429.894 66.5776 431.696 66.1489C433.499 65.7201 434.771 64.11 434.771 62.2575H430.771ZM419.161 50.1075L417.166 53.5748C417.171 53.5773 417.175 53.5798 417.179 53.5823L419.161 50.1075ZM384.466 50.5125L386.545 53.9293L386.554 53.9242L384.466 50.5125ZM372.181 63.54L368.668 61.6266C368.664 61.634 368.66 61.6413 368.656 61.6487L372.181 63.54ZM372.248 101.34L368.735 103.253C368.739 103.261 368.743 103.268 368.747 103.275L372.248 101.34ZM384.601 114.435L382.499 117.839C382.506 117.843 382.514 117.847 382.521 117.852L384.601 114.435ZM390.811 106.942L388.736 110.362C388.741 110.366 388.747 110.369 388.753 110.372L390.811 106.942ZM381.361 67.86L377.845 65.9525L377.845 65.9525L381.361 67.86ZM390.811 57.9375L392.857 61.3743C392.867 61.3686 392.876 61.363 392.886 61.3573L390.811 57.9375ZM418.351 57.9375L416.276 61.3573C416.285 61.363 416.295 61.3686 416.304 61.3743L418.351 57.9375ZM427.733 67.86L424.202 69.7384C424.207 69.7482 424.212 69.7579 424.217 69.7675L427.733 67.86ZM427.733 97.02L431.249 98.9275C431.252 98.9224 431.255 98.9172 431.257 98.912L427.733 97.02ZM418.283 107.01L420.347 110.437L420.358 110.43L418.283 107.01ZM402.151 123.16C408.95 123.16 415.221 121.501 420.867 118.143L416.779 111.267C412.436 113.849 407.591 115.16 402.151 115.16V123.16ZM420.867 118.143C426.479 114.807 430.946 110.2 434.247 104.398L427.294 100.442C424.655 105.08 421.157 108.663 416.779 111.267L420.867 118.143ZM426.771 102.42V117H434.771V102.42H426.771ZM430.771 121H440.626V113H430.771V121ZM444.626 117V47.88H436.626V117H444.626ZM440.626 43.88H430.771V51.88H440.626V43.88ZM426.771 47.88V62.2575H434.771V47.88H426.771ZM434.342 60.4562C431.371 54.5653 426.941 49.9393 421.142 46.6326L417.179 53.5823C421.64 56.1257 424.95 59.5997 427.199 64.0588L434.342 60.4562ZM421.155 46.6402C415.423 43.343 409.058 41.72 402.151 41.72V49.72C407.754 49.72 412.728 51.022 417.166 53.5748L421.155 46.6402ZM402.151 41.72C394.9 41.72 388.272 43.4927 382.377 47.1008L386.554 53.9242C391.099 51.1423 396.261 49.72 402.151 49.72V41.72ZM382.386 47.0957C376.584 50.6271 372.006 55.4991 368.668 61.6266L375.693 65.4534C378.386 60.5109 381.997 56.6979 386.545 53.9293L382.386 47.0957ZM368.656 61.6487C365.339 67.831 363.726 74.7714 363.726 82.3725H371.726C371.726 75.9336 373.083 70.319 375.705 65.4313L368.656 61.6487ZM363.726 82.3725C363.726 90.0641 365.362 97.0595 368.735 103.253L375.761 99.4266C373.105 94.5505 371.726 88.9009 371.726 82.3725H363.726ZM368.747 103.275C372.126 109.387 376.716 114.268 382.499 117.839L386.702 111.031C382.136 108.212 378.49 104.363 375.749 99.4047L368.747 103.275ZM382.521 117.852C388.371 121.413 394.951 123.16 402.151 123.16V115.16C396.301 115.16 391.18 113.757 386.68 111.018L382.521 117.852ZM404.581 106.587C400.111 106.587 396.244 105.538 392.869 103.513L388.753 110.372C393.477 113.207 398.79 114.587 404.581 114.587V106.587ZM392.886 103.523C389.503 101.471 386.843 98.67 384.876 95.045L377.845 98.86C380.468 103.695 384.108 107.554 388.736 110.362L392.886 103.523ZM384.876 95.045C382.939 91.4739 381.918 87.3075 381.918 82.44H373.918C373.918 88.4625 375.192 93.9711 377.845 98.86L384.876 95.045ZM381.918 82.44C381.918 77.5214 382.942 73.3339 384.876 69.7675L377.845 65.9525C375.19 70.8461 373.918 76.3786 373.918 82.44H381.918ZM384.876 69.7675C386.84 66.1487 389.491 63.3787 392.857 61.3743L388.764 54.5007C384.12 57.2663 380.471 61.1113 377.845 65.9525L384.876 69.7675ZM392.886 61.3573C396.201 59.3458 400.058 58.2925 404.581 58.2925V50.2925C398.753 50.2925 393.43 51.6692 388.736 54.5177L392.886 61.3573ZM404.581 58.2925C409.103 58.2925 412.96 59.3458 416.276 61.3573L420.426 54.5177C415.731 51.6692 410.408 50.2925 404.581 50.2925V58.2925ZM416.304 61.3743C419.663 63.3745 422.285 66.1349 424.202 69.7384L431.265 65.9815C428.681 61.1251 425.048 57.2705 420.397 54.5007L416.304 61.3743ZM424.217 69.7675C426.152 73.3339 427.176 77.5214 427.176 82.44H435.176C435.176 76.3786 433.904 70.8461 431.249 65.9525L424.217 69.7675ZM427.176 82.44C427.176 87.3067 426.155 91.5029 424.209 95.128L431.257 98.912C433.901 93.9871 435.176 88.4633 435.176 82.44H427.176ZM424.217 95.1125C422.251 98.7375 419.59 101.538 416.208 103.59L420.358 110.43C424.986 107.622 428.626 103.763 431.249 98.9275L424.217 95.1125ZM416.219 103.583C412.955 105.55 409.118 106.587 404.581 106.587V114.587C410.394 114.587 415.692 113.24 420.347 110.437L416.219 103.583ZM492.512 117L488.913 118.747C489.582 120.125 490.98 121 492.512 121V117ZM498.992 117V121C500.523 121 501.92 120.126 502.589 118.749L498.992 117ZM532.607 47.88L536.204 49.6294C536.807 48.3897 536.729 46.927 535.998 45.7584C535.267 44.5898 533.986 43.88 532.607 43.88V47.88ZM521.065 47.88V43.88C519.502 43.88 518.082 44.7899 517.43 46.2097L521.065 47.88ZM495.752 102.96L492.116 104.627C492.767 106.048 494.187 106.959 495.75 106.96C497.313 106.961 498.734 106.051 499.387 104.63L495.752 102.96ZM470.507 47.88L474.143 46.2134C473.492 44.7916 472.071 43.88 470.507 43.88V47.88ZM458.965 47.88V43.88C457.587 43.88 456.306 44.5892 455.574 45.7571C454.843 46.9249 454.764 48.3869 455.366 49.6266L458.965 47.88ZM492.512 121H498.992V113H492.512V121ZM502.589 118.749L536.204 49.6294L529.01 46.1306L495.395 115.251L502.589 118.749ZM532.607 43.88H521.065V51.88H532.607V43.88ZM517.43 46.2097L492.117 101.29L499.387 104.63L524.699 49.5503L517.43 46.2097ZM499.388 101.293L474.143 46.2134L466.871 49.5466L492.116 104.627L499.388 101.293ZM470.507 43.88H458.965V51.88H470.507V43.88ZM455.366 49.6266L488.913 118.747L496.111 115.253L462.563 46.1334L455.366 49.6266ZM578.873 117L575.151 115.534C574.666 116.765 574.822 118.157 575.567 119.251C576.312 120.345 577.549 121 578.873 121V117ZM589.876 117V121C591.529 121 593.012 119.983 593.607 118.44L589.876 117ZM603.578 81.495V77.495C601.925 77.495 600.442 78.5123 599.846 80.0548L603.578 81.495ZM651.436 81.495L655.172 80.0672C654.58 78.5182 653.094 77.495 651.436 77.495V81.495ZM665.003 117L661.267 118.428C661.858 119.977 663.345 121 665.003 121V117ZM676.073 117V121C677.396 121 678.634 120.346 679.379 119.252C680.124 118.158 680.28 116.767 679.795 115.536L676.073 117ZM632.266 5.62499L635.988 4.16085C635.386 2.63092 633.91 1.62499 632.266 1.62499V5.62499ZM622.748 5.62499V1.62499C621.105 1.62499 619.629 2.62999 619.026 4.1589L622.748 5.62499ZM607.021 72.45L603.286 71.0176C602.814 72.2474 602.978 73.6306 603.724 74.7161C604.471 75.8015 605.703 76.45 607.021 76.45V72.45ZM627.473 19.125L631.208 17.6926C630.615 16.146 629.129 15.125 627.473 15.125C625.817 15.125 624.331 16.146 623.738 17.6926L627.473 19.125ZM647.926 72.45V76.45C649.243 76.45 650.475 75.8015 651.222 74.7161C651.968 73.6306 652.132 72.2474 651.66 71.0176L647.926 72.45ZM578.873 121H589.876V113H578.873V121ZM593.607 118.44L607.31 82.9352L599.846 80.0548L586.144 115.56L593.607 118.44ZM603.578 85.495H651.436V77.495H603.578V85.495ZM647.699 82.9228L661.267 118.428L668.739 115.572L655.172 80.0672L647.699 82.9228ZM665.003 121H676.073V113H665.003V121ZM679.795 115.536L635.988 4.16085L628.543 7.08914L672.351 118.464L679.795 115.536ZM632.266 1.62499H622.748V9.62499H632.266V1.62499ZM619.026 4.1589L575.151 115.534L582.595 118.466L626.47 7.09109L619.026 4.1589ZM610.755 73.8824L631.208 20.5574L623.738 17.6926L603.286 71.0176L610.755 73.8824ZM623.738 20.5574L644.191 73.8824L651.66 71.0176L631.208 17.6926L623.738 20.5574ZM647.926 68.45H607.021V76.45H647.926V68.45ZM734.207 113.085L731.618 110.036C731.614 110.04 731.609 110.044 731.604 110.048L734.207 113.085ZM738.865 87.03L735.585 89.3197C735.592 89.3295 735.599 89.3393 735.606 89.349L738.865 87.03ZM731.845 81.1575L729.993 84.7029C730.007 84.7102 730.021 84.7174 730.035 84.7245L731.845 81.1575ZM721.315 76.5675L719.871 80.2978C719.889 80.3046 719.906 80.3114 719.924 80.318L721.315 76.5675ZM713.485 73.3275L711.835 76.9713C711.843 76.9752 711.852 76.979 711.86 76.9827L713.485 73.3275ZM707.68 69.48L704.81 72.2659C704.823 72.2802 704.837 72.2944 704.851 72.3084L707.68 69.48ZM708.962 55.9125L706.407 52.8349C706.398 52.8428 706.388 52.8509 706.379 52.859L708.962 55.9125ZM733.667 61.11L730.483 63.531C731.232 64.5161 732.395 65.099 733.632 65.1098C734.87 65.1206 736.043 64.5581 736.809 63.5862L733.667 61.11ZM738.19 55.3725L741.331 57.8487C742.528 56.331 742.468 54.1751 741.189 52.726L738.19 55.3725ZM729.01 48.285L727.24 51.8722C727.246 51.8753 727.253 51.8784 727.259 51.8814L729.01 48.285ZM706.802 48.2175L708.513 51.8334C708.526 51.8272 708.539 51.8208 708.552 51.8144L706.802 48.2175ZM698.972 54.765L702.267 57.0334C702.273 57.0251 702.278 57.0167 702.284 57.0084L698.972 54.765ZM698.77 72.9225L695.592 75.3523C695.61 75.3755 695.628 75.3985 695.646 75.4213L698.77 72.9225ZM705.587 78.525L707.491 75.0068L707.491 75.0068L705.587 78.525ZM714.092 82.5075L712.607 86.2214C712.622 86.2276 712.638 86.2337 712.653 86.2397L714.092 82.5075ZM729.347 90.405L726.267 92.9571C726.282 92.9742 726.296 92.9913 726.31 93.0082L729.347 90.405ZM726.782 107.617L724.187 104.574L724.187 104.574L726.782 107.617ZM704.237 107.887L701.912 111.142C701.922 111.149 701.931 111.156 701.941 111.162L704.237 107.887ZM695.8 97.56L699.392 95.8005C698.813 94.6171 697.687 93.7951 696.384 93.6028C695.08 93.4105 693.765 93.8726 692.869 94.8382L695.8 97.56ZM690.535 103.23L687.604 100.508C686.487 101.711 686.218 103.474 686.926 104.955L690.535 103.23ZM700.727 115.042L698.573 118.413C698.581 118.418 698.59 118.423 698.598 118.429L700.727 115.042ZM715.847 123.16C724.11 123.16 731.218 120.916 736.811 116.122L731.604 110.048C727.747 113.354 722.615 115.16 715.847 115.16V123.16ZM736.796 116.134C742.564 111.237 745.362 104.577 745.362 96.615H737.362C737.362 102.513 735.39 106.833 731.618 110.036L736.796 116.134ZM745.362 96.615C745.362 92.0636 744.432 87.9548 742.124 84.711L735.606 89.349C736.628 90.7851 737.362 93.0664 737.362 96.615H745.362ZM742.145 84.7403C740.045 81.7332 737.162 79.3701 733.655 77.5905L730.035 84.7245C732.558 86.0049 734.354 87.5568 735.585 89.3197L742.145 84.7403ZM733.697 77.6121C730.501 75.9424 726.831 74.3465 722.706 72.817L719.924 80.318C723.809 81.7585 727.159 83.2226 729.993 84.7029L733.697 77.6121ZM722.759 72.8372C720.022 71.7779 717.473 70.7227 715.109 69.6723L711.86 76.9827C714.357 78.0922 717.027 79.1971 719.871 80.2978L722.759 72.8372ZM715.135 69.6837C713.084 68.7552 711.58 67.7237 710.508 66.6516L704.851 72.3084C706.749 74.2063 709.115 75.7398 711.835 76.9713L715.135 69.6837ZM710.55 66.6941C709.863 65.9865 709.452 65.0858 709.452 63.675H701.452C701.452 66.9442 702.526 69.9135 704.81 72.2659L710.55 66.6941ZM709.452 63.675C709.452 61.5995 710.147 60.1499 711.546 58.966L706.379 52.859C703.098 55.6351 701.452 59.3605 701.452 63.675H709.452ZM711.517 58.9901C713.036 57.729 715.151 56.9425 718.21 56.9425V48.9425C713.709 48.9425 709.658 50.136 706.407 52.8349L711.517 58.9901ZM718.21 56.9425C722.976 56.9425 727.005 58.9557 730.483 63.531L736.852 58.689C732.05 52.3743 725.774 48.9425 718.21 48.9425V56.9425ZM736.809 63.5862L741.331 57.8487L735.048 52.8963L730.526 58.6338L736.809 63.5862ZM741.189 52.726C738.166 49.2992 734.689 46.6011 730.761 44.6886L727.259 51.8814C730.17 53.2989 732.814 55.3258 735.191 58.019L741.189 52.726ZM730.78 44.6978C726.838 42.7534 722.608 41.7875 718.142 41.7875V49.7875C721.417 49.7875 724.431 50.4866 727.24 51.8722L730.78 44.6978ZM718.142 41.7875C713.393 41.7875 709.001 42.6999 705.053 44.6206L708.552 51.8144C711.264 50.4951 714.432 49.7875 718.142 49.7875V41.7875ZM705.092 44.6016C701.177 46.4532 697.989 49.0846 695.661 52.5216L702.284 57.0084C703.736 54.8654 705.768 53.1318 708.513 51.8334L705.092 44.6016ZM695.678 52.4966C693.297 55.9543 692.137 59.9068 692.137 64.215H700.137C700.137 61.4132 700.868 59.0657 702.267 57.0334L695.678 52.4966ZM692.137 64.215C692.137 68.4095 693.197 72.2199 695.592 75.3523L701.947 70.4927C700.833 69.0351 700.137 67.0405 700.137 64.215H692.137ZM695.646 75.4213C697.808 78.123 700.508 80.3248 703.684 82.0432L707.491 75.0068C705.177 73.7552 703.332 72.222 701.893 70.4237L695.646 75.4213ZM703.684 82.0432C706.566 83.6021 709.54 84.9948 712.607 86.2214L715.578 78.7936C712.794 77.6802 710.099 76.4179 707.491 75.0068L703.684 82.0432ZM712.653 86.2397C716.354 87.6663 719.444 88.9253 721.936 90.0182L725.149 82.6918C722.511 81.5347 719.301 80.2287 715.531 78.7753L712.653 86.2397ZM721.936 90.0182C724.13 90.9803 725.479 92.0059 726.267 92.9571L732.427 87.8529C730.606 85.6541 728.085 83.9797 725.149 82.6918L721.936 90.0182ZM726.31 93.0082C726.853 93.6408 727.372 94.7856 727.372 96.9525H735.372C735.372 93.5394 734.542 90.3192 732.384 87.8018L726.31 93.0082ZM727.372 96.9525C727.372 100.438 726.243 102.82 724.187 104.574L729.378 110.661C733.442 107.195 735.372 102.467 735.372 96.9525H727.372ZM724.187 104.574C721.898 106.526 719.168 107.532 715.78 107.532V115.532C720.942 115.532 725.546 113.929 729.378 110.661L724.187 104.574ZM715.78 107.532C712.372 107.532 709.327 106.571 706.534 104.613L701.941 111.162C706.078 114.064 710.728 115.532 715.78 115.532V107.532ZM706.562 104.633C703.715 102.599 701.305 99.7066 699.392 95.8005L692.208 99.3195C694.614 104.233 697.83 108.226 701.912 111.142L706.562 104.633ZM692.869 94.8382L687.604 100.508L693.466 105.952L698.731 100.282L692.869 94.8382ZM686.926 104.955C689.648 110.652 693.524 115.186 698.573 118.413L702.882 111.672C699.201 109.319 696.281 105.978 694.144 101.505L686.926 104.955ZM698.598 118.429C703.669 121.617 709.463 123.16 715.847 123.16V115.16C710.802 115.16 706.516 113.958 702.857 111.656L698.598 118.429ZM764.733 117H760.733C760.733 119.209 762.524 121 764.733 121V117ZM774.588 117V121C776.797 121 778.588 119.209 778.588 117H774.588ZM776.951 63L773.492 60.9915C773.488 60.9974 773.485 61.0034 773.481 61.0093L776.951 63ZM783.903 56.25L781.93 52.7707L781.93 52.7707L783.903 56.25ZM808.811 59.4225L805.794 62.049C805.805 62.0616 805.816 62.0741 805.827 62.0866L808.811 59.4225ZM813.873 117H809.873C809.873 119.209 811.664 121 813.873 121V117ZM823.728 117V121C825.937 121 827.728 119.209 827.728 117H823.728ZM816.776 53.145L813.843 55.8648C813.851 55.874 813.86 55.8831 813.868 55.8923L816.776 53.145ZM783.296 49.095L781.337 45.6076C781.331 45.6108 781.325 45.614 781.32 45.6172L783.296 49.095ZM774.588 57.33H770.588C770.588 59.1448 771.81 60.7323 773.564 61.1968C775.319 61.6613 777.166 60.8864 778.064 59.3094L774.588 57.33ZM774.588 0.832495H778.588C778.588 -1.37664 776.797 -3.16751 774.588 -3.16751V0.832495ZM764.733 0.832495V-3.16751C762.524 -3.16751 760.733 -1.37664 760.733 0.832495H764.733ZM764.733 121H774.588V113H764.733V121ZM778.588 117V71.9775H770.588V117H778.588ZM778.588 71.9775C778.588 69.4186 779.201 67.1149 780.42 64.9907L773.481 61.0093C771.55 64.3751 770.588 68.0564 770.588 71.9775H778.588ZM780.41 65.0085C781.647 62.8774 783.431 61.1164 785.877 59.7293L781.93 52.7707C778.345 54.8036 775.494 57.5426 773.492 60.9915L780.41 65.0085ZM785.877 59.7293C788.171 58.4283 791.081 57.685 794.771 57.685V49.685C790.001 49.685 785.666 50.6517 781.93 52.7707L785.877 59.7293ZM794.771 57.685C799.884 57.685 803.368 59.2627 805.794 62.049L811.828 56.796C807.593 51.9323 801.718 49.685 794.771 49.685V57.685ZM805.827 62.0866C808.325 64.8844 809.873 69.2352 809.873 75.7575H817.873C817.873 68.0598 816.046 61.5206 811.794 56.7584L805.827 62.0866ZM809.873 75.7575V117H817.873V75.7575H809.873ZM813.873 121H823.728V113H813.873V121ZM827.728 117V73.8675H819.728V117H827.728ZM827.728 73.8675C827.728 64.2722 825.221 56.2582 819.683 50.3977L813.868 55.8923C817.6 59.8417 819.728 65.6428 819.728 73.8675H827.728ZM819.709 50.4252C814.221 44.5069 806.773 41.72 797.876 41.72V49.72C804.998 49.72 810.151 51.8831 813.843 55.8648L819.709 50.4252ZM797.876 41.72C791.64 41.72 786.069 42.9489 781.337 45.6076L785.255 52.5823C788.532 50.7411 792.682 49.72 797.876 49.72V41.72ZM781.32 45.6172C776.872 48.1441 773.385 51.3602 771.112 55.3506L778.064 59.3094C779.482 56.8198 781.799 54.5459 785.272 52.5728L781.32 45.6172ZM778.588 57.33V0.832495H770.588V57.33H778.588ZM774.588 -3.16751H764.733V4.83249H774.588V-3.16751ZM760.733 0.832495V117H768.733V0.832495H760.733ZM851.481 117H847.481C847.481 119.209 849.272 121 851.481 121V117ZM861.336 117V121C863.545 121 865.336 119.209 865.336 117H861.336ZM863.969 63.135L860.676 60.8641C860.673 60.8681 860.67 60.8722 860.668 60.8763L863.969 63.135ZM870.921 56.79L868.96 53.3037C868.952 53.3081 868.945 53.3126 868.937 53.317L870.921 56.79ZM889.551 56.4525L887.829 60.0629C889.811 61.008 892.184 60.1793 893.146 58.2062L889.551 56.4525ZM893.601 48.15L897.196 49.9037C897.663 48.9463 897.729 47.8421 897.379 46.836C897.029 45.8299 896.293 45.0049 895.332 44.5439L893.601 48.15ZM861.336 58.0725H857.336C857.336 59.9035 858.58 61.5008 860.355 61.9502C862.13 62.3995 863.983 61.5863 864.854 59.9758L861.336 58.0725ZM861.336 47.88H865.336C865.336 45.6709 863.545 43.88 861.336 43.88V47.88ZM851.481 47.88V43.88C849.272 43.88 847.481 45.6709 847.481 47.88H851.481ZM851.481 121H861.336V113H851.481V121ZM865.336 117V71.37H857.336V117H865.336ZM865.336 71.37C865.336 69.3027 865.94 67.3373 867.27 65.3937L860.668 60.8763C858.487 64.0627 857.336 67.5873 857.336 71.37H865.336ZM867.262 65.4059C868.711 63.3046 870.575 61.5946 872.906 60.263L868.937 53.317C865.597 55.2254 862.827 57.7454 860.676 60.8641L867.262 65.4059ZM872.882 60.2763C875.194 58.9759 877.537 58.36 879.966 58.36V50.36C876.095 50.36 872.408 51.364 868.96 53.3037L872.882 60.2763ZM879.966 58.36C882.878 58.36 885.479 58.9419 887.829 60.0629L891.273 52.8421C887.774 51.1731 883.985 50.36 879.966 50.36V58.36ZM893.146 58.2062L897.196 49.9037L890.006 46.3963L885.956 54.6988L893.146 58.2062ZM895.332 44.5439C891.334 42.6249 886.856 41.72 881.991 41.72V49.72C885.856 49.72 889.118 50.4351 891.87 51.7561L895.332 44.5439ZM881.991 41.72C876.729 41.72 871.945 42.889 867.788 45.3752C863.632 47.8607 860.33 51.5264 857.818 56.1692L864.854 59.9758C866.798 56.3836 869.165 53.8731 871.894 52.2411C874.622 50.6097 877.939 49.72 881.991 49.72V41.72ZM865.336 58.0725V47.88H857.336V58.0725H865.336ZM861.336 43.88H851.481V51.88H861.336V43.88ZM847.481 47.88V117H855.481V47.88H847.481ZM956.977 114.705L959.022 118.143L959.022 118.143L956.977 114.705ZM968.925 102.42H972.925C972.925 100.605 971.703 99.0173 969.948 98.553C968.193 98.0888 966.346 98.8643 965.448 100.442L968.925 102.42ZM968.925 117H964.925C964.925 119.209 966.716 121 968.925 121V117ZM978.78 117V121C980.989 121 982.78 119.209 982.78 117H978.78ZM978.78 47.88H982.78C982.78 45.6709 980.989 43.88 978.78 43.88V47.88ZM968.925 47.88V43.88C966.716 43.88 964.925 45.6709 964.925 47.88H968.925ZM968.925 62.2575L965.353 64.0588C966.188 65.7128 968.048 66.5776 969.851 66.1489C971.653 65.7201 972.925 64.11 972.925 62.2575H968.925ZM957.315 50.1075L955.32 53.5748C955.325 53.5773 955.329 53.5798 955.334 53.5823L957.315 50.1075ZM922.62 50.5125L924.7 53.9293L924.708 53.9242L922.62 50.5125ZM910.335 63.54L906.822 61.6266C906.818 61.634 906.814 61.6413 906.81 61.6487L910.335 63.54ZM910.402 101.34L906.89 103.253C906.894 103.261 906.898 103.268 906.902 103.275L910.402 101.34ZM922.755 114.435L920.654 117.839C920.661 117.843 920.668 117.847 920.675 117.852L922.755 114.435ZM928.965 106.942L926.89 110.362C926.896 110.366 926.901 110.369 926.907 110.372L928.965 106.942ZM919.515 67.86L915.999 65.9525L915.999 65.9525L919.515 67.86ZM928.965 57.9375L931.012 61.3743C931.021 61.3686 931.03 61.363 931.04 61.3573L928.965 57.9375ZM956.505 57.9375L954.43 61.3573C954.439 61.363 954.449 61.3686 954.458 61.3743L956.505 57.9375ZM965.887 67.86L962.356 69.7384C962.361 69.7482 962.366 69.7579 962.372 69.7675L965.887 67.86ZM965.887 97.02L969.403 98.9275C969.406 98.9224 969.409 98.9172 969.412 98.912L965.887 97.02ZM956.437 107.01L958.501 110.437L958.512 110.43L956.437 107.01ZM940.305 123.16C947.105 123.16 953.375 121.501 959.022 118.143L954.933 111.267C950.59 113.849 945.745 115.16 940.305 115.16V123.16ZM959.022 118.143C964.633 114.807 969.101 110.2 972.402 104.398L965.448 100.442C962.809 105.08 959.312 108.663 954.933 111.267L959.022 118.143ZM964.925 102.42V117H972.925V102.42H964.925ZM968.925 121H978.78V113H968.925V121ZM982.78 117V47.88H974.78V117H982.78ZM978.78 43.88H968.925V51.88H978.78V43.88ZM964.925 47.88V62.2575H972.925V47.88H964.925ZM972.496 60.4562C969.525 54.5653 965.096 49.9393 959.296 46.6326L955.334 53.5823C959.794 56.1257 963.105 59.5997 965.353 64.0588L972.496 60.4562ZM959.309 46.6402C953.577 43.343 947.212 41.72 940.305 41.72V49.72C945.908 49.72 950.883 51.022 955.32 53.5748L959.309 46.6402ZM940.305 41.72C933.054 41.72 926.427 43.4927 920.532 47.1008L924.708 53.9242C929.253 51.1423 934.416 49.72 940.305 49.72V41.72ZM920.54 47.0957C914.739 50.6271 910.16 55.4991 906.822 61.6266L913.848 65.4534C916.54 60.5109 920.151 56.6979 924.7 53.9293L920.54 47.0957ZM906.81 61.6487C903.493 67.831 901.88 74.7714 901.88 82.3725H909.88C909.88 75.9336 911.237 70.319 913.86 65.4313L906.81 61.6487ZM901.88 82.3725C901.88 90.0641 903.516 97.0595 906.89 103.253L913.915 99.4266C911.259 94.5505 909.88 88.9009 909.88 82.3725H901.88ZM906.902 103.275C910.281 109.387 914.87 114.268 920.654 117.839L924.856 111.031C920.29 108.212 916.644 104.363 913.903 99.4047L906.902 103.275ZM920.675 117.852C926.525 121.413 933.105 123.16 940.305 123.16V115.16C934.455 115.16 929.335 113.757 924.835 111.018L920.675 117.852ZM942.735 106.587C938.265 106.587 934.398 105.538 931.023 103.513L926.907 110.372C931.632 113.207 936.945 114.587 942.735 114.587V106.587ZM931.04 103.523C927.658 101.471 924.998 98.67 923.031 95.045L915.999 98.86C918.622 103.695 922.262 107.554 926.89 110.362L931.04 103.523ZM923.031 95.045C921.093 91.4739 920.072 87.3075 920.072 82.44H912.072C912.072 88.4625 913.347 93.9711 915.999 98.86L923.031 95.045ZM920.072 82.44C920.072 77.5214 921.096 73.3339 923.031 69.7675L915.999 65.9525C913.344 70.8461 912.072 76.3786 912.072 82.44H920.072ZM923.031 69.7675C924.994 66.1487 927.646 63.3787 931.012 61.3743L926.918 54.5007C922.274 57.2663 918.626 61.1113 915.999 65.9525L923.031 69.7675ZM931.04 61.3573C934.355 59.3458 938.213 58.2925 942.735 58.2925V50.2925C936.907 50.2925 931.585 51.6692 926.89 54.5177L931.04 61.3573ZM942.735 58.2925C947.257 58.2925 951.115 59.3458 954.43 61.3573L958.58 54.5177C953.885 51.6692 948.563 50.2925 942.735 50.2925V58.2925ZM954.458 61.3743C957.817 63.3745 960.439 66.1349 962.356 69.7384L969.419 65.9815C966.836 61.1251 963.203 57.2705 958.552 54.5007L954.458 61.3743ZM962.372 69.7675C964.306 73.3339 965.33 77.5214 965.33 82.44H973.33C973.33 76.3786 972.058 70.8461 969.403 65.9525L962.372 69.7675ZM965.33 82.44C965.33 87.3067 964.309 91.5029 962.363 95.128L969.412 98.912C972.056 93.9871 973.33 88.4633 973.33 82.44H965.33ZM962.372 95.1125C960.405 98.7375 957.745 101.538 954.363 103.59L958.512 110.43C963.14 107.622 966.78 103.763 969.403 98.9275L962.372 95.1125ZM954.374 103.583C951.109 105.55 947.272 106.587 942.735 106.587V114.587C948.548 114.587 953.846 113.24 958.501 110.437L954.374 103.583ZM31.5552 247L27.7207 248.139C28.2248 249.836 29.7847 251 31.5552 251V247ZM36.5432 247V251C38.2526 251 39.773 249.914 40.3272 248.297L36.5432 247ZM49.9702 207.821L53.755 206.527C53.2018 204.909 51.6814 203.822 49.9716 203.821C48.2617 203.82 46.7406 204.907 46.1863 206.524L49.9702 207.821ZM63.3682 247L59.5834 248.294C60.1368 249.913 61.6579 251 63.3682 251V247ZM68.3272 247V251C70.0978 251 71.6577 249.836 72.1617 248.139L68.3272 247ZM82.5372 199.15L86.3717 200.289C86.7311 199.078 86.4981 197.77 85.7431 196.758C84.9881 195.746 83.7997 195.15 82.5372 195.15V199.15ZM77.6362 199.15V195.15C75.8467 195.15 74.2749 196.339 73.7875 198.061L77.6362 199.15ZM65.7172 241.258L61.9233 242.525C62.4793 244.19 64.0556 245.298 65.8103 245.257C67.5649 245.216 69.088 244.036 69.566 242.347L65.7172 241.258ZM51.6522 199.15L55.4462 197.883C54.901 196.251 53.373 195.15 51.6522 195.15V199.15ZM48.2302 199.15V195.15C46.5076 195.15 44.9785 196.253 44.4347 197.887L48.2302 199.15ZM34.2232 241.258L30.3758 242.352C30.856 244.04 32.3805 245.218 34.1352 245.257C35.8899 245.296 37.4648 244.186 38.0188 242.521L34.2232 241.258ZM22.2462 199.15L26.0936 198.056C25.6045 196.336 24.0339 195.15 22.2462 195.15V199.15ZM17.3452 199.15V195.15C16.0828 195.15 14.8944 195.746 14.1394 196.758C13.3844 197.77 13.1513 199.078 13.5107 200.289L17.3452 199.15ZM31.5552 251H36.5432V243H31.5552V251ZM40.3272 248.297L53.7542 209.118L46.1863 206.524L32.7593 245.703L40.3272 248.297ZM46.1854 209.115L59.5834 248.294L67.1531 245.706L53.755 206.527L46.1854 209.115ZM63.3682 251H68.3272V243H63.3682V251ZM72.1617 248.139L86.3717 200.289L78.7027 198.011L64.4927 245.861L72.1617 248.139ZM82.5372 195.15H77.6362V203.15H82.5372V195.15ZM73.7875 198.061L61.8685 240.169L69.566 242.347L81.485 200.239L73.7875 198.061ZM69.5112 239.991L55.4462 197.883L47.8583 200.417L61.9233 242.525L69.5112 239.991ZM51.6522 195.15H48.2302V203.15H51.6522V195.15ZM44.4347 197.887L30.4277 239.995L38.0188 242.521L52.0258 200.413L44.4347 197.887ZM38.0706 240.164L26.0936 198.056L18.3988 200.244L30.3758 242.352L38.0706 240.164ZM22.2462 195.15H17.3452V203.15H22.2462V195.15ZM13.5107 200.289L27.7207 248.139L35.3897 245.861L21.1797 198.011L13.5107 200.289ZM110.164 246.014L108.308 242.471L108.297 242.477L110.164 246.014ZM115.935 240.649L119.345 242.741C119.92 241.802 120.084 240.668 119.797 239.606C119.51 238.543 118.797 237.646 117.828 237.125L115.935 240.649ZM112.803 238.967L114.696 235.443C112.892 234.475 110.649 235.024 109.497 236.716L112.803 238.967ZM95.9833 242.911L94.0345 246.404C94.0438 246.409 94.0533 246.415 94.0627 246.42L95.9833 242.911ZM91.6623 238.706L88.187 240.687C88.1954 240.701 88.204 240.716 88.2126 240.731L91.6623 238.706ZM90.1253 232.558V228.558C87.9161 228.558 86.1253 230.349 86.1253 232.558H90.1253ZM116.863 232.558V236.558C118.796 236.558 120.453 235.175 120.799 233.274L116.863 232.558ZM116.921 232.007L112.952 231.511C112.932 231.675 112.921 231.841 112.921 232.007H116.921ZM116.95 231.456H120.95C120.95 231.421 120.95 231.386 120.949 231.351L116.95 231.456ZM114.804 223.626L111.351 225.645C111.358 225.657 111.365 225.668 111.372 225.68L114.804 223.626ZM109.352 218.29L107.4 221.781C107.404 221.783 107.408 221.786 107.412 221.788L109.352 218.29ZM95.4613 217.594L93.8856 213.917C93.881 213.919 93.8765 213.921 93.8719 213.923L95.4613 217.594ZM90.5023 220.987L93.3496 223.796L93.3496 223.796L90.5023 220.987ZM87.1383 226.062L90.8206 227.624C90.8225 227.62 90.8243 227.615 90.8262 227.611L87.1383 226.062ZM88.0083 240.272L84.5562 242.293C84.5627 242.304 84.5692 242.315 84.5758 242.326L88.0083 240.272ZM93.7793 245.869L91.8156 249.354L93.7793 245.869ZM90.3573 229.368L86.3927 228.837C86.2395 229.98 86.5873 231.134 87.3468 232.002C88.1064 232.87 89.2038 233.368 90.3573 233.368V229.368ZM92.2713 224.438L89.0401 222.08L89.0344 222.088L92.2713 224.438ZM96.2443 221.103L98.0158 224.689C98.0273 224.684 98.0388 224.678 98.0503 224.672L96.2443 221.103ZM106.829 221.103L108.653 217.543L108.653 217.543L106.829 221.103ZM110.773 224.467L107.542 226.825L107.542 226.825L110.773 224.467ZM112.716 229.368V233.368C113.872 233.368 114.971 232.868 115.73 231.998C116.49 231.127 116.836 229.97 116.679 228.826L112.716 229.368ZM102.102 251.928C105.656 251.928 108.993 251.156 112.032 249.551L108.297 242.477C106.502 243.424 104.464 243.928 102.102 243.928V251.928ZM112.02 249.557C115.083 247.953 117.549 245.669 119.345 242.741L112.526 238.557C111.499 240.231 110.118 241.523 108.308 242.471L112.02 249.557ZM117.828 237.125L114.696 235.443L110.911 242.491L114.043 244.173L117.828 237.125ZM109.497 236.716C107.796 239.214 105.549 240.419 102.276 240.419V248.419C108.091 248.419 112.861 245.99 116.11 241.218L109.497 236.716ZM102.276 240.419C100.503 240.419 99.0804 240.046 97.9038 239.402L94.0627 246.42C96.5595 247.786 99.3326 248.419 102.276 248.419V240.419ZM97.9321 239.418C96.7046 238.733 95.7879 237.833 95.1119 236.681L88.2126 240.731C89.6246 243.136 91.5886 245.04 94.0345 246.404L97.9321 239.418ZM95.1375 236.725C94.494 235.596 94.1253 234.243 94.1253 232.558H86.1253C86.1253 235.474 86.7812 238.22 88.187 240.687L95.1375 236.725ZM90.1253 236.558H116.863V228.558H90.1253V236.558ZM120.799 233.274C120.865 232.91 120.921 232.475 120.921 232.007H112.921C112.921 231.921 112.926 231.864 112.929 231.842C112.931 231.819 112.932 231.818 112.928 231.842L120.799 233.274ZM120.89 232.503C120.936 232.137 120.95 231.779 120.95 231.456H112.95C112.95 231.503 112.949 231.531 112.949 231.543C112.948 231.556 112.948 231.544 112.952 231.511L120.89 232.503ZM120.949 231.351C120.856 227.792 119.985 224.494 118.237 221.572L111.372 225.68C112.33 227.282 112.89 229.204 112.952 231.561L120.949 231.351ZM118.257 221.607C116.563 218.709 114.224 216.418 111.292 214.792L107.412 221.788C109.082 222.714 110.378 223.981 111.351 225.645L118.257 221.607ZM111.305 214.799C108.356 213.149 105.058 212.376 101.522 212.376V220.376C103.864 220.376 105.786 220.879 107.4 221.781L111.305 214.799ZM101.522 212.376C98.8573 212.376 96.2986 212.883 93.8856 213.917L97.0369 221.271C98.4132 220.681 99.8953 220.376 101.522 220.376V212.376ZM93.8719 213.923C91.5275 214.938 89.447 216.361 87.6549 218.178L93.3496 223.796C94.4189 222.713 95.6444 221.874 97.0506 221.265L93.8719 213.923ZM87.6549 218.178C85.8557 220.001 84.4538 222.124 83.4503 224.513L90.8262 227.611C91.4468 226.133 92.2875 224.873 93.3496 223.796L87.6549 218.178ZM83.4559 224.5C82.4201 226.942 81.9203 229.546 81.9203 232.268H89.9203C89.9203 230.544 90.2325 229.01 90.8206 227.624L83.4559 224.5ZM81.9203 232.268C81.9203 235.882 82.779 239.257 84.5562 242.293L91.4603 238.251C90.4535 236.531 89.9203 234.57 89.9203 232.268H81.9203ZM84.5758 242.326C86.3505 245.292 88.7849 247.646 91.8156 249.354L95.7429 242.384C93.9016 241.347 92.4887 239.97 91.4407 238.218L84.5758 242.326ZM91.8156 249.354C94.9167 251.101 98.3812 251.928 102.102 251.928V243.928C99.598 243.928 97.5139 243.382 95.7429 242.384L91.8156 249.354ZM94.3218 229.899C94.4927 228.624 94.9056 227.618 95.5081 226.788L89.0344 222.088C87.5876 224.081 86.7245 226.361 86.3927 228.837L94.3218 229.899ZM95.5024 226.796C96.1619 225.892 96.9833 225.199 98.0158 224.689L94.4727 217.517C92.2959 218.592 90.4686 220.123 89.0401 222.08L95.5024 226.796ZM98.0503 224.672C99.0481 224.167 100.2 223.885 101.58 223.885V215.885C99.055 215.885 96.6498 216.415 94.4382 217.534L98.0503 224.672ZM101.58 223.885C102.909 223.885 104.026 224.162 105.006 224.663L108.653 217.543C106.461 216.42 104.08 215.885 101.58 215.885V223.885ZM105.006 224.663C106.038 225.192 106.869 225.903 107.542 226.825L114.004 222.109C112.589 220.17 110.792 218.638 108.653 217.543L105.006 224.663ZM107.542 226.825C108.177 227.695 108.587 228.698 108.753 229.91L116.679 228.826C116.343 226.364 115.457 224.1 114.004 222.109L107.542 226.825ZM112.716 225.368H90.3573V233.368H112.716V225.368ZM150.994 245.898L148.915 242.481L148.915 242.481L150.994 245.898ZM156.272 240.301L152.772 238.366C152.768 238.373 152.764 238.38 152.76 238.388L156.272 240.301ZM156.301 224.032L159.814 222.119L159.814 222.119L156.301 224.032ZM150.994 218.435L148.893 221.839C148.905 221.846 148.916 221.853 148.928 221.86L150.994 218.435ZM136.204 218.261L134.183 214.809L134.183 214.809L136.204 218.261ZM131.158 223.481H127.158C127.158 225.308 128.397 226.903 130.167 227.356C131.937 227.809 133.789 227.005 134.667 225.403L131.158 223.481ZM131.158 197.12H135.158C135.158 194.911 133.368 193.12 131.158 193.12V197.12ZM126.924 197.12V193.12C124.715 193.12 122.924 194.911 122.924 197.12H126.924ZM126.924 247H122.924C122.924 249.209 124.715 251 126.924 251V247ZM131.158 247V251C133.368 251 135.158 249.209 135.158 247H131.158ZM131.158 240.736L134.648 238.781C133.758 237.193 131.909 236.406 130.148 236.866C128.387 237.325 127.158 238.916 127.158 240.736H131.158ZM136.291 246.014L138.322 242.568L138.322 242.568L136.291 246.014ZM136.523 242.708L134.449 246.128C134.458 246.133 134.467 246.139 134.477 246.145L136.523 242.708ZM132.463 238.416L128.948 240.324L128.948 240.324L132.463 238.416ZM132.463 225.917L135.979 227.825C135.982 227.819 135.985 227.814 135.988 227.809L132.463 225.917ZM136.523 221.625L138.57 225.062C138.58 225.056 138.589 225.05 138.598 225.045L136.523 221.625ZM148.326 221.625L146.234 225.034C146.249 225.044 146.265 225.053 146.28 225.062L148.326 221.625ZM152.386 225.917L148.862 227.809C148.865 227.814 148.868 227.819 148.871 227.825L152.386 225.917ZM152.386 238.387L148.871 236.479C148.865 236.489 148.86 236.499 148.855 236.509L152.386 238.387ZM148.355 242.679L146.281 239.259L146.281 239.259L148.355 242.679ZM143.483 251.928C146.948 251.928 150.18 251.076 153.074 249.315L148.915 242.481C147.362 243.426 145.587 243.928 143.483 243.928V251.928ZM153.074 249.315C155.924 247.58 158.167 245.185 159.785 242.214L152.76 238.388C151.787 240.173 150.511 241.509 148.915 242.481L153.074 249.315ZM159.773 242.236C161.454 239.195 162.244 235.798 162.244 232.152H154.244C154.244 234.615 153.72 236.651 152.772 238.366L159.773 242.236ZM162.244 232.152C162.244 228.53 161.466 225.152 159.814 222.119L152.789 225.945C153.727 227.668 154.244 229.703 154.244 232.152H162.244ZM159.814 222.119C158.191 219.14 155.932 216.743 153.061 215.01L148.928 221.86C150.542 222.834 151.821 224.168 152.789 225.945L159.814 222.119ZM153.096 215.031C150.186 213.235 146.913 212.376 143.396 212.376V220.376C145.564 220.376 147.356 220.89 148.893 221.839L153.096 215.031ZM143.396 212.376C140.085 212.376 136.982 213.17 134.183 214.809L138.226 221.713C139.719 220.839 141.41 220.376 143.396 220.376V212.376ZM134.183 214.809C131.4 216.439 129.209 218.714 127.65 221.559L134.667 225.403C135.544 223.802 136.717 222.596 138.226 221.713L134.183 214.809ZM135.158 223.481V197.12H127.158V223.481H135.158ZM131.158 193.12H126.924V201.12H131.158V193.12ZM122.924 197.12V247H130.924V197.12H122.924ZM126.924 251H131.158V243H126.924V251ZM135.158 247V240.736H127.158V247H135.158ZM127.669 242.691C129.263 245.536 131.471 247.816 134.261 249.46L138.322 242.568C136.781 241.66 135.567 240.421 134.648 238.781L127.669 242.691ZM134.261 249.46C137.07 251.116 140.174 251.928 143.483 251.928V243.928C141.534 243.928 139.843 243.464 138.322 242.568L134.261 249.46ZM142.439 240.245C140.855 240.245 139.605 239.888 138.57 239.271L134.477 246.145C136.883 247.578 139.577 248.245 142.439 248.245V240.245ZM138.598 239.288C137.501 238.622 136.637 237.721 135.979 236.508L128.948 240.324C130.262 242.746 132.105 244.706 134.449 246.128L138.598 239.288ZM135.979 236.508C135.351 235.35 134.984 233.943 134.984 232.181H126.984C126.984 235.098 127.604 237.847 128.948 240.324L135.979 236.508ZM134.984 232.181C134.984 230.394 135.353 228.978 135.979 227.825L128.948 224.009C127.602 226.49 126.984 229.251 126.984 232.181H134.984ZM135.988 227.809C136.645 226.584 137.499 225.7 138.57 225.062L134.477 218.188C132.106 219.6 130.254 221.576 128.939 224.025L135.988 227.809ZM138.598 225.045C139.629 224.419 140.869 224.059 142.439 224.059V216.059C139.563 216.059 136.859 216.743 134.449 218.205L138.598 225.045ZM142.439 224.059C144.011 224.059 145.232 224.419 146.234 225.034L150.419 218.216C148.018 216.743 145.315 216.059 142.439 216.059V224.059ZM146.28 225.062C147.351 225.7 148.205 226.584 148.862 227.809L155.911 224.025C154.596 221.576 152.743 219.6 150.373 218.188L146.28 225.062ZM148.871 227.825C149.497 228.978 149.865 230.394 149.865 232.181H157.865C157.865 229.251 157.248 226.49 155.902 224.009L148.871 227.825ZM149.865 232.181C149.865 233.917 149.502 235.316 148.871 236.479L155.902 240.295C157.243 237.823 157.865 235.085 157.865 232.181H149.865ZM148.855 236.509C148.218 237.706 147.371 238.597 146.281 239.259L150.43 246.099C152.781 244.673 154.621 242.703 155.918 240.265L148.855 236.509ZM146.281 239.259C145.25 239.885 144.01 240.245 142.439 240.245V248.245C145.316 248.245 148.02 247.561 150.43 246.099L146.281 239.259ZM185.074 247H181.074C181.074 249.209 182.865 251 185.074 251V247ZM205.345 245.202L206.865 248.902L206.877 248.897L205.345 245.202ZM213.03 240.127L215.846 242.968L215.846 242.968L213.03 240.127ZM218.163 232.5L221.851 234.049L221.851 234.049L218.163 232.5ZM218.134 213.708L214.443 215.248C214.447 215.258 214.451 215.268 214.455 215.278L218.134 213.708ZM213.001 206.081L210.173 208.909C210.181 208.918 210.19 208.926 210.198 208.934L213.001 206.081ZM205.345 200.977L206.886 197.285L206.886 197.285L205.345 200.977ZM185.074 199.15V195.15C182.865 195.15 181.074 196.941 181.074 199.15H185.074ZM189.482 243.056H185.482C185.482 245.265 187.273 247.056 189.482 247.056V243.056ZM189.482 203.094V199.094C187.273 199.094 185.482 200.885 185.482 203.094H189.482ZM203.286 204.631L201.725 208.314C201.733 208.317 201.742 208.321 201.75 208.324L203.286 204.631ZM209.608 208.865L206.765 211.678C206.77 211.683 206.775 211.688 206.78 211.693L209.608 208.865ZM213.842 215.216L210.149 216.752L210.149 216.752L213.842 215.216ZM213.842 230.963L217.536 232.499L217.54 232.489L213.842 230.963ZM209.608 237.314L206.78 234.486L206.78 234.486L209.608 237.314ZM203.286 241.548L204.823 245.241C204.831 245.238 204.84 245.234 204.848 245.231L203.286 241.548ZM185.074 251H195.862V243H185.074V251ZM195.862 251C199.745 251 203.427 250.314 206.865 248.902L203.826 241.502C201.426 242.487 198.785 243 195.862 243V251ZM206.877 248.897C210.278 247.487 213.28 245.511 215.846 242.968L210.215 237.286C208.411 239.073 206.29 240.481 203.814 241.507L206.877 248.897ZM215.846 242.968C218.428 240.409 220.433 237.426 221.851 234.049L214.476 230.951C213.458 233.374 212.041 235.476 210.214 237.286L215.846 242.968ZM221.851 234.049C223.289 230.625 223.99 226.962 223.99 223.104H215.99C215.99 225.974 215.474 228.575 214.476 230.951L221.851 234.049ZM223.99 223.104C223.99 219.237 223.277 215.567 221.814 212.138L214.455 215.278C215.467 217.649 215.99 220.243 215.99 223.104H223.99ZM221.826 212.168C220.408 208.768 218.399 205.776 215.805 203.228L210.198 208.934C212.012 210.717 213.425 212.809 214.443 215.248L221.826 212.168ZM215.83 203.253C213.267 200.69 210.275 198.699 206.886 197.285L203.805 204.669C206.255 205.691 208.366 207.103 210.173 208.909L215.83 203.253ZM206.886 197.285C203.442 195.849 199.753 195.15 195.862 195.15V203.15C198.777 203.15 201.41 203.669 203.805 204.669L206.886 197.285ZM195.862 195.15H185.074V203.15H195.862V195.15ZM181.074 199.15V247H189.074V199.15H181.074ZM193.482 243.056V203.094H185.482V243.056H193.482ZM189.482 207.094H195.456V199.094H189.482V207.094ZM195.456 207.094C197.76 207.094 199.835 207.512 201.725 208.314L204.848 200.948C201.904 199.7 198.759 199.094 195.456 199.094V207.094ZM201.75 208.324C203.689 209.131 205.349 210.247 206.765 211.678L212.452 206.052C210.272 203.848 207.717 202.142 204.823 200.938L201.75 208.324ZM206.78 211.693C208.22 213.134 209.341 214.81 210.149 216.752L217.536 213.68C216.333 210.789 214.631 208.231 212.437 206.037L206.78 211.693ZM210.149 216.752C210.937 218.645 211.35 220.738 211.35 223.075H219.35C219.35 219.767 218.759 216.62 217.536 213.68L210.149 216.752ZM211.35 223.075C211.35 225.412 210.937 227.519 210.145 229.437L217.54 232.489C218.759 229.535 219.35 226.384 219.35 223.075H211.35ZM210.149 229.427C209.341 231.369 208.22 233.045 206.78 234.486L212.437 240.142C214.631 237.948 216.333 235.39 217.536 232.499L210.149 229.427ZM206.78 234.486C205.357 235.908 203.684 237.035 201.725 237.865L204.848 245.231C207.722 244.012 210.264 242.316 212.437 240.142L206.78 234.486ZM201.75 237.855C199.854 238.644 197.77 239.056 195.456 239.056V247.056C198.749 247.056 201.885 246.463 204.823 245.241L201.75 237.855ZM195.456 239.056H189.482V247.056H195.456V239.056ZM253.012 246.014L251.156 242.471L251.144 242.477L253.012 246.014ZM258.783 240.649L262.193 242.741C262.768 241.802 262.932 240.668 262.644 239.606C262.357 238.543 261.645 237.646 260.675 237.125L258.783 240.649ZM255.651 238.967L257.543 235.443C255.74 234.475 253.497 235.024 252.345 236.716L255.651 238.967ZM238.831 242.911L236.882 246.404C236.891 246.409 236.901 246.415 236.91 246.42L238.831 242.911ZM234.51 238.706L231.035 240.687C231.043 240.701 231.052 240.716 231.06 240.731L234.51 238.706ZM232.973 232.558V228.558C230.764 228.558 228.973 230.349 228.973 232.558H232.973ZM259.711 232.558V236.558C261.644 236.558 263.301 235.175 263.646 233.274L259.711 232.558ZM259.769 232.007L255.8 231.511C255.779 231.675 255.769 231.841 255.769 232.007H259.769ZM259.798 231.456H263.798C263.798 231.421 263.797 231.386 263.797 231.351L259.798 231.456ZM257.652 223.626L254.199 225.645C254.206 225.657 254.212 225.668 254.219 225.68L257.652 223.626ZM252.2 218.29L250.247 221.781C250.251 221.783 250.256 221.786 250.26 221.788L252.2 218.29ZM238.309 217.594L236.733 213.917C236.729 213.919 236.724 213.921 236.72 213.923L238.309 217.594ZM233.35 220.987L236.197 223.796L236.197 223.796L233.35 220.987ZM229.986 226.062L233.668 227.624C233.67 227.62 233.672 227.615 233.674 227.611L229.986 226.062ZM230.856 240.272L227.404 242.293C227.41 242.304 227.417 242.315 227.423 242.326L230.856 240.272ZM236.627 245.869L234.663 249.354L236.627 245.869ZM233.205 229.368L229.24 228.837C229.087 229.98 229.435 231.134 230.194 232.002C230.954 232.87 232.051 233.368 233.205 233.368V229.368ZM235.119 224.438L231.888 222.08L231.882 222.088L235.119 224.438ZM239.092 221.103L240.863 224.689C240.875 224.684 240.886 224.678 240.898 224.672L239.092 221.103ZM249.677 221.103L251.5 217.543L251.5 217.543L249.677 221.103ZM253.621 224.467L250.39 226.825L250.39 226.825L253.621 224.467ZM255.564 229.368V233.368C256.719 233.368 257.818 232.868 258.578 231.998C259.338 231.127 259.684 229.97 259.527 228.826L255.564 229.368ZM244.95 251.928C248.504 251.928 251.841 251.156 254.88 249.551L251.144 242.477C249.35 243.424 247.312 243.928 244.95 243.928V251.928ZM254.868 249.557C257.931 247.953 260.396 245.669 262.193 242.741L255.373 238.557C254.347 240.231 252.965 241.523 251.156 242.471L254.868 249.557ZM260.675 237.125L257.543 235.443L253.758 242.491L256.89 244.173L260.675 237.125ZM252.345 236.716C250.644 239.214 248.396 240.419 245.124 240.419V248.419C250.938 248.419 255.709 245.99 258.957 241.218L252.345 236.716ZM245.124 240.419C243.35 240.419 241.928 240.046 240.752 239.402L236.91 246.42C239.407 247.786 242.18 248.419 245.124 248.419V240.419ZM240.78 239.418C239.552 238.733 238.636 237.833 237.96 236.681L231.06 240.731C232.472 243.136 234.436 245.04 236.882 246.404L240.78 239.418ZM237.985 236.725C237.342 235.596 236.973 234.243 236.973 232.558H228.973C228.973 235.474 229.629 238.22 231.035 240.687L237.985 236.725ZM232.973 236.558H259.711V228.558H232.973V236.558ZM263.646 233.274C263.712 232.91 263.769 232.475 263.769 232.007H255.769C255.769 231.921 255.774 231.864 255.776 231.842C255.779 231.819 255.78 231.818 255.775 231.842L263.646 233.274ZM263.738 232.503C263.784 232.137 263.798 231.779 263.798 231.456H255.798C255.798 231.503 255.797 231.531 255.796 231.543C255.796 231.556 255.796 231.544 255.8 231.511L263.738 232.503ZM263.797 231.351C263.703 227.792 262.833 224.494 261.084 221.572L254.219 225.68C255.178 227.282 255.738 229.204 255.799 231.561L263.797 231.351ZM261.105 221.607C259.41 218.709 257.072 216.418 254.14 214.792L250.26 221.788C251.93 222.714 253.226 223.981 254.199 225.645L261.105 221.607ZM254.153 214.799C251.203 213.149 247.906 212.376 244.37 212.376V220.376C246.711 220.376 248.634 220.879 250.247 221.781L254.153 214.799ZM244.37 212.376C241.705 212.376 239.146 212.883 236.733 213.917L239.885 221.271C241.261 220.681 242.743 220.376 244.37 220.376V212.376ZM236.72 213.923C234.375 214.938 232.295 216.361 230.503 218.178L236.197 223.796C237.267 222.713 238.492 221.874 239.898 221.265L236.72 213.923ZM230.503 218.178C228.703 220.001 227.301 222.124 226.298 224.513L233.674 227.611C234.294 226.133 235.135 224.873 236.197 223.796L230.503 218.178ZM226.304 224.5C225.268 226.942 224.768 229.546 224.768 232.268H232.768C232.768 230.544 233.08 229.01 233.668 227.624L226.304 224.5ZM224.768 232.268C224.768 235.882 225.627 239.257 227.404 242.293L234.308 238.251C233.301 236.531 232.768 234.57 232.768 232.268H224.768ZM227.423 242.326C229.198 245.292 231.633 247.646 234.663 249.354L238.591 242.384C236.749 241.347 235.336 239.97 234.288 238.218L227.423 242.326ZM234.663 249.354C237.764 251.101 241.229 251.928 244.95 251.928V243.928C242.446 243.928 240.362 243.382 238.591 242.384L234.663 249.354ZM237.169 229.899C237.34 228.624 237.753 227.618 238.356 226.788L231.882 222.088C230.435 224.081 229.572 226.361 229.24 228.837L237.169 229.899ZM238.35 226.796C239.01 225.892 239.831 225.199 240.863 224.689L237.32 217.517C235.144 218.592 233.316 220.123 231.888 222.08L238.35 226.796ZM240.898 224.672C241.896 224.167 243.048 223.885 244.428 223.885V215.885C241.903 215.885 239.497 216.415 237.286 217.534L240.898 224.672ZM244.428 223.885C245.756 223.885 246.874 224.162 247.853 224.663L251.5 217.543C249.309 216.42 246.928 215.885 244.428 215.885V223.885ZM247.853 224.663C248.885 225.192 249.717 225.903 250.39 226.825L256.852 222.109C255.437 220.17 253.639 218.638 251.5 217.543L247.853 224.663ZM250.39 226.825C251.025 227.695 251.435 228.698 251.601 229.91L259.527 228.826C259.19 226.364 258.305 224.1 256.852 222.109L250.39 226.825ZM255.564 225.368H233.205V233.368H255.564V225.368ZM279.523 247L275.924 248.747C276.593 250.125 277.991 251 279.523 251V247ZM282.307 247V251C283.838 251 285.235 250.126 285.904 248.749L282.307 247ZM296.749 217.304L300.346 219.053C300.949 217.814 300.871 216.351 300.14 215.182C299.409 214.014 298.127 213.304 296.749 213.304V217.304ZM291.79 217.304V213.304C290.227 213.304 288.808 214.214 288.155 215.634L291.79 217.304ZM280.915 240.968L277.279 242.635C277.93 244.056 279.35 244.967 280.913 244.968C282.476 244.969 283.897 244.059 284.549 242.638L280.915 240.968ZM270.069 217.304L273.705 215.637C273.054 214.216 271.633 213.304 270.069 213.304V217.304ZM265.11 217.304V213.304C263.732 213.304 262.451 214.013 261.72 215.181C260.988 216.349 260.91 217.811 261.511 219.051L265.11 217.304ZM279.523 251H282.307V243H279.523V251ZM285.904 248.749L300.346 219.053L293.152 215.555L278.71 245.251L285.904 248.749ZM296.749 213.304H291.79V221.304H296.749V213.304ZM288.155 215.634L277.28 239.298L284.549 242.638L295.424 218.974L288.155 215.634ZM284.551 239.301L273.705 215.637L266.433 218.971L277.279 242.635L284.551 239.301ZM270.069 213.304H265.11V221.304H270.069V213.304ZM261.511 219.051L275.924 248.747L283.121 245.253L268.708 215.557L261.511 219.051ZM304.833 247H300.833C300.833 249.209 302.624 251 304.833 251V247ZM309.067 247V251C311.276 251 313.067 249.209 313.067 247H309.067ZM309.067 197.12H313.067C313.067 194.911 311.276 193.12 309.067 193.12V197.12ZM304.833 197.12V193.12C302.624 193.12 300.833 194.911 300.833 197.12H304.833ZM304.833 251H309.067V243H304.833V251ZM313.067 247V197.12H305.067V247H313.067ZM309.067 193.12H304.833V201.12H309.067V193.12ZM300.833 197.12V247H308.833V197.12H300.833ZM344.075 245.927L342.188 242.4L342.177 242.406L344.075 245.927ZM349.991 240.359L353.406 242.441L353.406 242.441L349.991 240.359ZM349.991 223.945L346.575 226.027C346.578 226.032 346.581 226.036 346.583 226.04L349.991 223.945ZM344.075 218.377L342.177 221.898L342.188 221.904L344.075 218.377ZM327.342 218.377L325.455 214.85L325.444 214.856L327.342 218.377ZM321.455 223.945L324.862 226.04C324.865 226.036 324.867 226.032 324.87 226.027L321.455 223.945ZM321.455 240.359L324.87 238.277L324.87 238.277L321.455 240.359ZM327.342 245.927L325.444 249.448L325.455 249.454L327.342 245.927ZM329.517 242.621L327.552 246.105L327.552 246.105L329.517 242.621ZM325.225 238.387L321.756 240.379C321.759 240.385 321.762 240.39 321.765 240.396L325.225 238.387ZM325.225 225.946L328.684 227.955C328.687 227.949 328.69 227.944 328.693 227.938L325.225 225.946ZM329.517 221.683L331.481 225.167L331.481 225.167L329.517 221.683ZM341.929 221.683L339.964 225.167L339.964 225.167L341.929 221.683ZM346.221 225.946L342.752 227.938C342.755 227.944 342.758 227.949 342.761 227.955L346.221 225.946ZM346.221 238.387L349.68 240.396C349.683 240.39 349.686 240.385 349.689 240.379L346.221 238.387ZM341.929 242.621L339.964 239.137L339.964 239.137L341.929 242.621ZM335.723 251.928C339.411 251.928 342.858 251.127 345.973 249.448L342.177 242.406C340.342 243.395 338.221 243.928 335.723 243.928V251.928ZM345.961 249.454C349.074 247.789 351.578 245.439 353.406 242.441L346.575 238.277C345.503 240.035 344.063 241.397 342.188 242.4L345.961 249.454ZM353.406 242.441C355.28 239.368 356.166 235.896 356.166 232.152H348.166C348.166 234.594 347.602 236.594 346.575 238.277L353.406 242.441ZM356.166 232.152C356.166 228.394 355.282 224.915 353.398 221.85L346.583 226.04C347.599 227.693 348.166 229.685 348.166 232.152H356.166ZM353.406 221.863C351.578 218.865 349.074 216.515 345.961 214.85L342.188 221.904C344.063 222.907 345.503 224.269 346.575 226.027L353.406 221.863ZM345.973 214.856C342.858 213.177 339.411 212.376 335.723 212.376V220.376C338.221 220.376 340.342 220.909 342.177 221.898L345.973 214.856ZM335.723 212.376C332.034 212.376 328.583 213.177 325.455 214.85L329.228 221.904C331.089 220.909 333.224 220.376 335.723 220.376V212.376ZM325.444 214.856C322.351 216.523 319.862 218.873 318.039 221.863L324.87 226.027C325.947 224.261 327.383 222.899 329.24 221.898L325.444 214.856ZM318.047 221.85C316.163 224.915 315.28 228.394 315.28 232.152H323.28C323.28 229.685 323.846 227.693 324.862 226.04L318.047 221.85ZM315.28 232.152C315.28 235.896 316.166 239.368 318.039 242.441L324.87 238.277C323.844 236.594 323.28 234.594 323.28 232.152H315.28ZM318.039 242.441C319.862 245.431 322.351 247.781 325.444 249.448L329.24 242.406C327.383 241.405 325.947 240.043 324.87 238.277L318.039 242.441ZM325.455 249.454C328.583 251.127 332.034 251.928 335.723 251.928V243.928C333.224 243.928 331.089 243.395 329.228 242.4L325.455 249.454ZM335.723 240.158C334.012 240.158 332.634 239.787 331.481 239.137L327.552 246.105C330.034 247.505 332.793 248.158 335.723 248.158V240.158ZM331.481 239.137C330.282 238.461 329.369 237.558 328.684 236.378L321.765 240.396C323.169 242.812 325.116 244.732 327.552 246.105L331.481 239.137ZM328.693 236.395C328.037 235.252 327.659 233.875 327.659 232.152H319.659C319.659 235.107 320.325 237.888 321.756 240.379L328.693 236.395ZM327.659 232.152C327.659 230.428 328.037 229.069 328.684 227.955L321.765 223.937C320.325 226.419 319.659 229.197 319.659 232.152H327.659ZM328.693 227.938C329.381 226.742 330.293 225.837 331.481 225.167L327.552 218.199C325.105 219.578 323.157 221.516 321.756 223.954L328.693 227.938ZM331.481 225.167C332.634 224.517 334.012 224.146 335.723 224.146V216.146C332.793 216.146 330.034 216.799 327.552 218.199L331.481 225.167ZM335.723 224.146C337.433 224.146 338.811 224.517 339.964 225.167L343.893 218.199C341.411 216.799 338.652 216.146 335.723 216.146V224.146ZM339.964 225.167C341.152 225.837 342.065 226.742 342.752 227.938L349.689 223.954C348.289 221.516 346.34 219.578 343.893 218.199L339.964 225.167ZM342.761 227.955C343.409 229.069 343.787 230.428 343.787 232.152H351.787C351.787 229.197 351.121 226.419 349.68 223.937L342.761 227.955ZM343.787 232.152C343.787 233.875 343.409 235.252 342.752 236.395L349.689 240.379C351.121 237.888 351.787 235.107 351.787 232.152H343.787ZM342.761 236.378C342.077 237.558 341.163 238.461 339.964 239.137L343.893 246.105C346.329 244.732 348.277 242.812 349.68 240.396L342.761 236.378ZM339.964 239.137C338.811 239.787 337.433 240.158 335.723 240.158V248.158C338.652 248.158 341.411 247.505 343.893 246.105L339.964 239.137ZM362.266 262.08H358.266C358.266 264.289 360.057 266.08 362.266 266.08V262.08ZM366.5 262.08V266.08C368.709 266.08 370.5 264.289 370.5 262.08H366.5ZM366.5 240.736L369.99 238.781C369.1 237.193 367.251 236.406 365.49 236.866C363.729 237.325 362.5 238.916 362.5 240.736H366.5ZM371.604 246.014L369.56 249.452C369.564 249.455 369.569 249.457 369.573 249.46L371.604 246.014ZM386.365 245.869L384.277 242.457C384.273 242.46 384.268 242.463 384.264 242.465L386.365 245.869ZM391.643 240.243L388.131 238.33C388.127 238.337 388.123 238.344 388.119 238.352L391.643 240.243ZM391.643 224.061L388.131 225.974L388.137 225.986L391.643 224.061ZM386.336 218.435L384.235 221.839C384.239 221.841 384.244 221.844 384.248 221.847L386.336 218.435ZM371.517 218.261L373.515 221.726L373.525 221.721L371.517 218.261ZM366.5 223.452H362.5C362.5 225.284 363.745 226.882 365.521 227.33C367.298 227.779 369.152 226.963 370.021 225.35L366.5 223.452ZM366.5 217.304H370.5C370.5 215.095 368.709 213.304 366.5 213.304V217.304ZM362.266 217.304V213.304C360.057 213.304 358.266 215.095 358.266 217.304H362.266ZM371.865 242.708L369.79 246.128C369.8 246.133 369.809 246.139 369.819 246.145L371.865 242.708ZM367.805 238.416L364.281 240.308C364.284 240.313 364.287 240.318 364.289 240.324L367.805 238.416ZM367.805 225.888L364.289 223.98L364.289 223.98L367.805 225.888ZM371.865 221.625L373.912 225.062C373.921 225.056 373.931 225.05 373.94 225.045L371.865 221.625ZM383.668 221.625L381.576 225.034C381.591 225.044 381.606 225.053 381.622 225.062L383.668 221.625ZM387.728 225.917L384.204 227.809C384.207 227.814 384.21 227.819 384.212 227.825L387.728 225.917ZM387.728 238.416L391.244 240.324L391.244 240.324L387.728 238.416ZM383.668 242.708L385.732 246.135L385.743 246.128L383.668 242.708ZM362.266 266.08H366.5V258.08H362.266V266.08ZM370.5 262.08V240.736H362.5V262.08H370.5ZM363.011 242.691C364.6 245.528 366.792 247.806 369.56 249.452L373.649 242.576C372.125 241.67 370.914 240.43 369.99 238.781L363.011 242.691ZM369.573 249.46C372.378 251.113 375.472 251.928 378.767 251.928V243.928C376.843 243.928 375.161 243.467 373.635 242.568L369.573 249.46ZM378.767 251.928C382.284 251.928 385.557 251.069 388.467 249.273L384.264 242.465C382.727 243.414 380.934 243.928 378.767 243.928V251.928ZM388.453 249.281C391.318 247.527 393.566 245.12 395.168 242.134L388.119 238.352C387.169 240.122 385.898 241.465 384.277 242.457L388.453 249.281ZM395.156 242.156C396.806 239.127 397.586 235.759 397.586 232.152H389.586C389.586 234.577 389.071 236.603 388.131 238.33L395.156 242.156ZM397.586 232.152C397.586 228.531 396.808 225.156 395.149 222.136L388.137 225.986C389.069 227.683 389.586 229.702 389.586 232.152H397.586ZM395.156 222.148C393.536 219.173 391.283 216.773 388.424 215.023L384.248 221.847C385.874 222.842 387.16 224.193 388.131 225.974L395.156 222.148ZM388.438 215.031C385.523 213.232 382.24 212.376 378.709 212.376V220.376C380.901 220.376 382.702 220.892 384.235 221.839L388.438 215.031ZM378.709 212.376C375.412 212.376 372.316 213.173 369.509 214.801L373.525 221.721C375.049 220.836 376.748 220.376 378.709 220.376V212.376ZM369.519 214.796C366.717 216.412 364.523 218.69 362.979 221.554L370.021 225.35C370.875 223.767 372.026 222.585 373.515 221.726L369.519 214.796ZM370.5 223.452V217.304H362.5V223.452H370.5ZM366.5 213.304H362.266V221.304H366.5V213.304ZM358.266 217.304V262.08H366.266V217.304H358.266ZM377.781 240.245C376.197 240.245 374.947 239.888 373.912 239.271L369.819 246.145C372.225 247.578 374.919 248.245 377.781 248.245V240.245ZM373.94 239.288C372.842 238.622 371.979 237.721 371.321 236.508L364.289 240.324C365.604 242.746 367.447 244.706 369.79 246.128L373.94 239.288ZM371.33 236.524C370.692 235.337 370.326 233.913 370.326 232.152H362.326C362.326 235.07 362.946 237.821 364.281 240.308L371.33 236.524ZM370.326 232.152C370.326 230.365 370.695 228.949 371.321 227.796L364.289 223.98C362.943 226.461 362.326 229.222 362.326 232.152H370.326ZM371.321 227.796C371.976 226.589 372.83 225.706 373.912 225.062L369.819 218.188C367.459 219.593 365.607 221.552 364.289 223.98L371.321 227.796ZM373.94 225.045C374.971 224.419 376.211 224.059 377.781 224.059V216.059C374.905 216.059 372.201 216.743 369.79 218.205L373.94 225.045ZM377.781 224.059C379.353 224.059 380.574 224.419 381.576 225.034L385.76 218.216C383.36 216.743 380.657 216.059 377.781 216.059V224.059ZM381.622 225.062C382.693 225.7 383.547 226.584 384.204 227.809L391.253 224.025C389.938 221.576 388.085 219.6 385.715 218.188L381.622 225.062ZM384.212 227.825C384.838 228.978 385.207 230.394 385.207 232.181H393.207C393.207 229.251 392.59 226.49 391.244 224.009L384.212 227.825ZM385.207 232.181C385.207 233.943 384.841 235.35 384.212 236.508L391.244 240.324C392.588 237.847 393.207 235.098 393.207 232.181H385.207ZM384.212 236.508C383.555 237.721 382.691 238.622 381.593 239.288L385.743 246.128C388.087 244.706 389.93 242.746 391.244 240.324L384.212 236.508ZM381.605 239.281C380.598 239.887 379.366 240.245 377.781 240.245V248.245C380.643 248.245 383.335 247.578 385.732 246.135L381.605 239.281ZM425.936 246.014L424.08 242.471L424.068 242.477L425.936 246.014ZM431.707 240.649L435.116 242.741C435.692 241.802 435.855 240.668 435.568 239.606C435.281 238.543 434.569 237.646 433.599 237.125L431.707 240.649ZM428.575 238.967L430.467 235.443C428.664 234.475 426.42 235.024 425.268 236.716L428.575 238.967ZM411.755 242.911L409.806 246.404C409.815 246.409 409.825 246.415 409.834 246.42L411.755 242.911ZM407.434 238.706L403.958 240.687C403.967 240.701 403.975 240.716 403.984 240.731L407.434 238.706ZM405.897 232.558V228.558C403.688 228.558 401.897 230.349 401.897 232.558H405.897ZM432.635 232.558V236.558C434.568 236.558 436.224 235.175 436.57 233.274L432.635 232.558ZM432.693 232.007L428.724 231.511C428.703 231.675 428.693 231.841 428.693 232.007H432.693ZM432.722 231.456H436.722C436.722 231.421 436.721 231.386 436.72 231.351L432.722 231.456ZM430.576 223.626L427.123 225.645C427.13 225.657 427.136 225.668 427.143 225.68L430.576 223.626ZM425.124 218.29L423.171 221.781C423.175 221.783 423.179 221.786 423.184 221.788L425.124 218.29ZM411.233 217.594L409.657 213.917C409.653 213.919 409.648 213.921 409.643 213.923L411.233 217.594ZM406.274 220.987L409.121 223.796L409.121 223.796L406.274 220.987ZM402.91 226.062L406.592 227.624C406.594 227.62 406.596 227.615 406.598 227.611L402.91 226.062ZM403.78 240.272L400.328 242.293C400.334 242.304 400.341 242.315 400.347 242.326L403.78 240.272ZM409.551 245.869L407.587 249.354L409.551 245.869ZM406.129 229.368L402.164 228.837C402.011 229.98 402.359 231.134 403.118 232.002C403.878 232.87 404.975 233.368 406.129 233.368V229.368ZM408.043 224.438L404.812 222.08L404.806 222.088L408.043 224.438ZM412.016 221.103L413.787 224.689C413.799 224.684 413.81 224.678 413.822 224.672L412.016 221.103ZM422.601 221.103L424.424 217.543L424.424 217.543L422.601 221.103ZM426.545 224.467L423.314 226.825L423.314 226.825L426.545 224.467ZM428.488 229.368V233.368C429.643 233.368 430.742 232.868 431.502 231.998C432.261 231.127 432.607 229.97 432.451 228.826L428.488 229.368ZM417.874 251.928C421.428 251.928 424.764 251.156 427.803 249.551L424.068 242.477C422.274 243.424 420.236 243.928 417.874 243.928V251.928ZM427.792 249.557C430.854 247.953 433.32 245.669 435.116 242.741L428.297 238.557C427.271 240.231 425.889 241.523 424.08 242.471L427.792 249.557ZM433.599 237.125L430.467 235.443L426.682 242.491L429.814 244.173L433.599 237.125ZM425.268 236.716C423.568 239.214 421.32 240.419 418.048 240.419V248.419C423.862 248.419 428.632 245.99 431.881 241.218L425.268 236.716ZM418.048 240.419C416.274 240.419 414.852 240.046 413.675 239.402L409.834 246.42C412.331 247.786 415.104 248.419 418.048 248.419V240.419ZM413.704 239.418C412.476 238.733 411.559 237.833 410.883 236.681L403.984 240.731C405.396 243.136 407.36 245.04 409.806 246.404L413.704 239.418ZM410.909 236.725C410.266 235.596 409.897 234.243 409.897 232.558H401.897C401.897 235.474 402.553 238.22 403.958 240.687L410.909 236.725ZM405.897 236.558H432.635V228.558H405.897V236.558ZM436.57 233.274C436.636 232.91 436.693 232.475 436.693 232.007H428.693C428.693 231.921 428.698 231.864 428.7 231.842C428.703 231.819 428.704 231.818 428.699 231.842L436.57 233.274ZM436.662 232.503C436.708 232.137 436.722 231.779 436.722 231.456H428.722C428.722 231.503 428.721 231.531 428.72 231.543C428.719 231.556 428.72 231.544 428.724 231.511L436.662 232.503ZM436.72 231.351C436.627 227.792 435.756 224.494 434.008 221.572L427.143 225.68C428.102 227.282 428.662 229.204 428.723 231.561L436.72 231.351ZM434.029 221.607C432.334 218.709 429.995 216.418 427.064 214.792L423.184 221.788C424.853 222.714 426.149 223.981 427.123 225.645L434.029 221.607ZM427.076 214.799C424.127 213.149 420.83 212.376 417.294 212.376V220.376C419.635 220.376 421.558 220.879 423.171 221.781L427.076 214.799ZM417.294 212.376C414.629 212.376 412.07 212.883 409.657 213.917L412.808 221.271C414.185 220.681 415.667 220.376 417.294 220.376V212.376ZM409.643 213.923C407.299 214.938 405.218 216.361 403.426 218.178L409.121 223.796C410.19 222.713 411.416 221.874 412.822 221.265L409.643 213.923ZM403.426 218.178C401.627 220.001 400.225 222.124 399.222 224.513L406.598 227.611C407.218 226.133 408.059 224.873 409.121 223.796L403.426 218.178ZM399.227 224.5C398.192 226.942 397.692 229.546 397.692 232.268H405.692C405.692 230.544 406.004 229.01 406.592 227.624L399.227 224.5ZM397.692 232.268C397.692 235.882 398.551 239.257 400.328 242.293L407.232 238.251C406.225 236.531 405.692 234.57 405.692 232.268H397.692ZM400.347 242.326C402.122 245.292 404.556 247.646 407.587 249.354L411.514 242.384C409.673 241.347 408.26 239.97 407.212 238.218L400.347 242.326ZM407.587 249.354C410.688 251.101 414.153 251.928 417.874 251.928V243.928C415.369 243.928 413.285 243.382 411.514 242.384L407.587 249.354ZM410.093 229.899C410.264 228.624 410.677 227.618 411.28 226.788L404.806 222.088C403.359 224.081 402.496 226.361 402.164 228.837L410.093 229.899ZM411.274 226.796C411.933 225.892 412.755 225.199 413.787 224.689L410.244 217.517C408.067 218.592 406.24 220.123 404.812 222.08L411.274 226.796ZM413.822 224.672C414.82 224.167 415.972 223.885 417.352 223.885V215.885C414.827 215.885 412.421 216.415 410.21 217.534L413.822 224.672ZM417.352 223.885C418.68 223.885 419.798 224.162 420.777 224.663L424.424 217.543C422.233 216.42 419.851 215.885 417.352 215.885V223.885ZM420.777 224.663C421.809 225.192 422.641 225.903 423.314 226.825L429.776 222.109C428.361 220.17 426.563 218.638 424.424 217.543L420.777 224.663ZM423.314 226.825C423.949 227.695 424.359 228.698 424.525 229.91L432.451 228.826C432.114 226.364 431.229 224.1 429.776 222.109L423.314 226.825ZM428.488 225.368H406.129V233.368H428.488V225.368ZM442.583 247H438.583C438.583 249.209 440.374 251 442.583 251V247ZM446.817 247V251C449.026 251 450.817 249.209 450.817 247H446.817ZM447.948 223.858L444.655 221.587C444.652 221.591 444.649 221.595 444.646 221.599L447.948 223.858ZM450.935 221.132L448.974 217.646C448.966 217.65 448.958 217.655 448.95 217.659L450.935 221.132ZM458.939 220.987L457.217 224.597C459.198 225.542 461.571 224.714 462.534 222.741L458.939 220.987ZM460.679 217.42L464.274 219.174C464.741 218.216 464.807 217.112 464.457 216.106C464.107 215.1 463.37 214.275 462.41 213.814L460.679 217.42ZM446.817 221.683H442.817C442.817 223.514 444.06 225.111 445.835 225.561C447.61 226.01 449.464 225.197 450.335 223.586L446.817 221.683ZM446.817 217.304H450.817C450.817 215.095 449.026 213.304 446.817 213.304V217.304ZM442.583 217.304V213.304C440.374 213.304 438.583 215.095 438.583 217.304H442.583ZM442.583 251H446.817V243H442.583V251ZM450.817 247V227.396H442.817V247H450.817ZM450.817 227.396C450.817 226.997 450.92 226.597 451.249 226.117L444.646 221.599C443.467 223.323 442.817 225.282 442.817 227.396H450.817ZM451.241 226.129C451.663 225.516 452.206 225.013 452.919 224.605L448.95 217.659C447.227 218.643 445.779 219.957 444.655 221.587L451.241 226.129ZM452.896 224.618C453.565 224.242 454.188 224.088 454.821 224.088V216.088C452.746 216.088 450.779 216.63 448.974 217.646L452.896 224.618ZM454.821 224.088C455.756 224.088 456.535 224.272 457.217 224.597L460.661 217.377C458.829 216.503 456.863 216.088 454.821 216.088V224.088ZM462.534 222.741L464.274 219.174L457.084 215.666L455.344 219.233L462.534 222.741ZM462.41 213.814C460.337 212.819 458.066 212.376 455.691 212.376V220.376C457.066 220.376 458.121 220.629 458.948 221.026L462.41 213.814ZM455.691 212.376C453.085 212.376 450.611 212.958 448.418 214.27C446.225 215.581 444.54 217.485 443.298 219.78L450.335 223.586C451.008 222.343 451.758 221.593 452.524 221.136C453.288 220.679 454.294 220.376 455.691 220.376V212.376ZM450.817 221.683V217.304H442.817V221.683H450.817ZM446.817 213.304H442.583V221.304H446.817V213.304ZM438.583 217.304V247H446.583V217.304H438.583Z" fill="white"/>
</svg>
